<svg width="1749" height="1140" viewBox="0 0 1749 1140" fill="none" xmlns="http://www.w3.org/2000/svg">
<path opacity="0.5" d="M356.186 887.992C356.186 943.05 310.854 987.682 254.934 987.682C199.014 987.682 153.682 943.05 153.682 887.992C153.682 832.935 199.014 788.302 254.934 788.302C310.854 788.302 356.186 832.935 356.186 887.992ZM356.186 887.992L1399.24 888.019M1399.24 888.019C1399.24 943.077 1444.57 987.709 1500.49 987.709C1556.42 987.709 1601.75 943.077 1601.75 888.019C1601.75 832.964 1556.42 788.331 1500.49 788.331C1444.57 788.331 1399.24 832.964 1399.24 888.019ZM1 151.394H1748M1 569.143H1748M254.934 1138.8V1.06804M433.33 1138.8V1.06804M1500.49 1138.8V1.06804M1322.1 1138.8V1.06804M831.577 1.85923L254.934 569.143L834.321 1138.47M923.117 1L1500.49 569.143L921.442 1138.8M356.186 251.084C356.186 306.142 310.854 350.774 254.934 350.774C199.014 350.774 153.682 306.142 153.682 251.084C153.682 196.027 199.014 151.394 254.934 151.394C310.854 151.394 356.186 196.027 356.186 251.084ZM1601.75 251.084C1601.75 306.142 1556.42 350.774 1500.49 350.774C1444.57 350.774 1399.24 306.142 1399.24 251.084C1399.24 196.027 1444.57 151.394 1500.49 151.394C1556.42 151.394 1601.75 196.027 1601.75 251.084Z" stroke="#DDDEF2" stroke-width="1.60682" stroke-linecap="round"/>
</svg>
