<svg id="splitsvg" version="1.1" xmlns="http://www.w3.org/2000/svg" xmlns:xlink="http://www.w3.org/1999/xlink" width="1380" height="1108"><g id="svgg"><path id="path0" d="M391.600 1.719 C 392.507 2.140,392.378 2.196,390.214 2.314 C 388.901 2.386,387.634 2.605,387.398 2.801 C 387.162 2.997,385.134 3.189,382.891 3.228 C 380.649 3.267,378.899 3.436,379.002 3.604 C 379.262 4.024,377.741 4.388,375.700 4.395 C 374.765 4.398,374.000 4.587,374.000 4.816 C 374.000 5.081,372.518 5.209,369.916 5.168 C 367.204 5.125,365.782 5.254,365.683 5.552 C 365.600 5.800,364.676 6.000,363.616 6.000 C 362.561 6.000,361.010 6.287,360.170 6.638 C 359.064 7.101,357.780 7.232,355.521 7.114 C 353.238 6.994,352.400 7.082,352.400 7.440 C 352.400 7.744,351.529 8.011,350.100 8.145 C 346.645 8.469,338.867 9.533,336.600 9.991 C 335.500 10.214,333.160 10.570,331.400 10.783 C 325.280 11.523,322.596 11.916,322.000 12.159 C 321.670 12.294,319.690 12.580,317.600 12.796 C 315.510 13.012,312.630 13.363,311.200 13.576 C 309.770 13.789,307.250 14.153,305.600 14.385 C 303.950 14.617,301.382 14.985,299.893 15.203 C 298.403 15.421,296.637 15.600,295.966 15.600 C 295.296 15.600,294.438 15.766,294.059 15.969 C 293.680 16.171,291.667 16.531,289.585 16.768 C 287.503 17.005,284.360 17.393,282.600 17.630 C 280.840 17.867,278.230 18.210,276.800 18.392 C 275.370 18.574,272.040 19.092,269.400 19.543 C 266.760 19.994,261.900 20.737,258.600 21.193 C 251.260 22.209,246.050 23.105,243.400 23.806 C 242.300 24.097,240.230 24.430,238.800 24.546 C 237.370 24.661,235.030 25.195,233.600 25.733 C 232.170 26.270,229.954 26.925,228.675 27.188 C 227.396 27.452,226.252 27.921,226.133 28.231 C 225.990 28.602,225.590 28.712,224.958 28.554 C 224.419 28.418,224.000 28.491,224.000 28.719 C 224.000 28.942,224.945 29.252,226.100 29.407 C 227.255 29.563,228.425 29.871,228.700 30.094 C 229.663 30.873,229.407 500.400,228.443 500.400 C 228.026 500.400,227.582 500.670,227.455 501.000 C 227.329 501.330,226.971 501.600,226.662 501.600 C 226.352 501.600,225.893 501.847,225.642 502.149 C 224.636 503.362,226.908 504.048,233.781 504.608 C 238.530 504.994,237.648 505.951,232.466 506.034 C 228.808 506.092,226.076 507.083,227.775 507.735 C 229.367 508.346,272.623 509.101,316.200 509.279 C 325.000 509.314,331.030 509.460,329.600 509.603 L 327.000 509.862 330.067 509.931 C 332.186 509.979,333.205 509.846,333.367 509.500 C 333.553 509.100,333.647 509.100,333.833 509.500 C 334.130 510.136,397.600 510.243,397.600 509.608 C 397.600 509.392,398.071 509.097,398.647 508.953 L 399.693 508.690 399.644 306.045 C 399.616 194.590,399.634 102.680,399.683 101.800 C 399.732 100.920,399.733 78.125,399.686 51.143 L 399.600 2.087 398.509 1.813 C 396.385 1.280,390.481 1.200,391.600 1.719 M398.048 3.745 C 398.380 4.474,398.333 4.970,397.840 5.922 C 397.359 6.853,397.301 7.412,397.603 8.207 C 397.868 8.904,398.002 93.210,398.001 258.119 L 397.999 506.979 397.188 507.790 C 396.183 508.794,376.890 508.775,359.600 507.753 C 353.990 507.421,347.690 507.056,345.600 506.942 C 341.368 506.711,339.647 506.000,343.320 506.000 C 344.574 506.000,345.600 505.820,345.600 505.600 C 345.600 505.380,345.060 505.200,344.400 505.200 C 343.740 505.200,343.200 505.020,343.200 504.800 C 343.200 504.580,343.943 504.400,344.852 504.400 L 346.504 504.400 346.299 502.584 C 346.187 501.585,345.786 500.426,345.408 500.009 C 344.647 499.168,344.885 498.414,345.924 498.375 C 346.414 498.356,346.352 498.250,345.700 497.988 L 344.800 497.626 344.800 256.403 L 344.800 15.180 345.826 14.790 C 346.390 14.576,347.695 14.376,348.726 14.348 L 350.600 14.295 348.266 13.997 C 342.462 13.255,342.891 11.075,349.042 10.048 C 350.779 9.758,352.433 9.330,352.717 9.097 C 353.001 8.865,355.161 8.609,357.517 8.531 C 362.460 8.365,366.193 7.731,366.845 6.946 C 367.129 6.604,368.138 6.399,369.549 6.397 C 372.588 6.392,378.226 5.724,381.072 5.031 C 382.352 4.719,385.036 4.348,387.036 4.207 C 389.035 4.066,391.375 3.699,392.236 3.393 C 394.865 2.456,397.534 2.617,398.048 3.745 M337.422 12.435 C 337.948 13.287,336.894 13.772,335.711 13.220 C 334.671 12.736,334.651 12.682,335.400 12.379 C 336.538 11.920,337.113 11.935,337.422 12.435  M -25 0 L -5 0 L -5 20 L -25 20 Z M 405 0 L 425 0 L 425 20 L 405 20 Z" stroke="none" fill="#bc6aee" fill-rule="evenodd" transform="translate(30,0)"></path><path id="path1" d="M110.629 217.429 C 109.826 218.231,109.829 219.148,110.638 220.042 C 111.911 221.448,112.788 220.088,112.148 217.700 C 111.863 216.639,111.486 216.571,110.629 217.429 M107.600 231.837 C 107.600 232.188,107.240 232.569,106.800 232.684 C 105.818 232.941,105.799 233.265,106.700 234.368 C 108.069 236.043,109.963 233.638,108.643 231.900 C 107.982 231.029,107.600 231.006,107.600 231.837 M100.900 245.596 C 100.108 246.078,99.600 246.711,99.600 247.215 C 99.600 247.670,99.150 248.705,98.600 249.514 C 97.916 250.521,97.600 251.530,97.600 252.709 C 97.600 254.448,96.820 256.356,95.033 258.990 C 94.496 259.780,93.932 260.998,93.779 261.697 C 93.625 262.396,93.175 263.605,92.779 264.384 C 92.382 265.163,91.977 266.982,91.878 268.427 C 91.730 270.584,91.504 271.262,90.614 272.223 C 89.376 273.559,88.400 275.671,88.400 277.016 C 88.400 277.522,88.147 278.445,87.837 279.068 C 87.012 280.726,86.515 281.970,85.832 284.079 C 85.497 285.113,84.884 286.733,84.468 287.679 C 84.053 288.626,83.410 290.429,83.040 291.686 C 82.670 292.944,82.195 294.079,81.984 294.210 C 81.773 294.340,81.600 294.889,81.600 295.429 C 81.600 295.969,81.437 296.723,81.238 297.105 C 80.670 298.195,78.113 304.848,77.666 306.400 C 77.444 307.170,76.957 308.874,76.583 310.187 C 76.210 311.500,75.611 313.022,75.252 313.569 C 74.559 314.627,73.752 316.629,73.224 318.600 C 73.047 319.260,72.635 320.520,72.309 321.400 C 71.982 322.280,71.498 323.720,71.233 324.600 C 70.968 325.480,70.471 326.920,70.128 327.800 C 69.785 328.680,69.329 329.850,69.115 330.400 C 68.901 330.950,68.473 331.910,68.163 332.532 C 67.853 333.155,67.600 333.920,67.600 334.232 C 67.600 334.545,67.450 334.800,67.267 334.800 C 67.083 334.800,66.933 335.066,66.933 335.392 C 66.933 336.407,65.986 339.312,64.972 341.406 C 64.437 342.510,64.000 343.815,64.000 344.306 C 64.000 344.798,63.820 345.200,63.600 345.200 C 63.380 345.200,63.200 345.628,63.200 346.151 C 63.200 346.674,62.930 347.326,62.600 347.600 C 62.270 347.874,62.000 348.346,62.000 348.649 C 62.000 348.952,61.820 349.200,61.600 349.200 C 61.380 349.200,61.200 350.095,61.200 351.188 C 61.200 352.644,60.854 353.848,59.907 355.688 C 59.196 357.070,58.565 358.732,58.505 359.382 C 58.445 360.032,58.217 360.743,57.998 360.962 C 57.779 361.181,57.600 361.684,57.600 362.080 C 57.600 362.476,57.420 362.800,57.200 362.800 C 56.980 362.800,56.800 363.244,56.800 363.786 C 56.800 364.908,55.618 367.600,55.126 367.600 C 54.947 367.600,54.800 368.320,54.800 369.200 C 54.800 370.080,54.620 370.800,54.400 370.800 C 54.180 370.800,54.000 371.239,54.000 371.776 C 54.000 372.313,53.820 372.864,53.600 373.000 C 53.380 373.136,53.200 373.664,53.200 374.174 C 53.200 374.683,52.750 376.118,52.200 377.362 C 51.650 378.605,51.200 379.967,51.200 380.388 C 51.200 380.809,51.051 381.245,50.869 381.357 C 50.687 381.470,50.209 382.650,49.806 383.981 C 49.403 385.311,48.922 386.400,48.737 386.400 C 48.552 386.400,48.400 386.850,48.400 387.400 C 48.400 387.950,48.220 388.400,48.000 388.400 C 47.780 388.400,47.600 388.925,47.600 389.568 C 47.600 390.210,47.300 391.335,46.932 392.068 C 45.693 394.540,45.600 394.787,45.600 395.595 C 45.600 396.038,45.420 396.400,45.200 396.400 C 44.980 396.400,44.800 396.568,44.800 396.774 C 44.800 396.980,44.591 397.655,44.336 398.274 C 44.080 398.893,43.797 399.940,43.706 400.600 C 43.616 401.260,43.375 401.971,43.171 402.180 C 42.967 402.389,42.800 402.974,42.800 403.480 C 42.800 403.986,42.620 404.400,42.400 404.400 C 42.180 404.400,42.000 404.940,42.000 405.600 C 42.000 406.260,41.820 406.800,41.600 406.800 C 41.380 406.800,41.200 407.244,41.200 407.786 C 41.200 408.667,40.555 410.509,39.551 412.495 C 39.358 412.877,39.200 413.481,39.200 413.837 C 39.200 414.216,38.976 414.400,38.662 414.279 C 38.280 414.133,38.177 414.344,38.305 415.013 C 38.502 416.048,37.295 419.600,36.746 419.600 C 36.556 419.600,36.400 420.140,36.400 420.800 C 36.400 421.460,36.220 422.000,36.000 422.000 C 35.780 422.000,35.600 422.529,35.600 423.176 C 35.600 423.823,35.440 424.451,35.245 424.572 C 35.050 424.693,34.770 425.437,34.622 426.226 C 34.474 427.015,34.003 428.282,33.576 429.042 C 33.149 429.802,32.800 430.835,32.800 431.337 C 32.800 431.839,32.383 433.139,31.873 434.225 C 31.364 435.311,30.703 437.010,30.404 438.000 C 30.105 438.990,29.712 439.971,29.530 440.180 C 29.349 440.389,29.200 440.964,29.200 441.459 C 29.200 441.953,28.750 443.204,28.200 444.238 C 27.650 445.273,27.200 446.622,27.200 447.236 C 27.200 447.850,27.020 448.464,26.800 448.600 C 26.580 448.736,26.400 449.197,26.400 449.624 C 26.400 450.051,26.236 450.400,26.035 450.400 C 25.834 450.400,25.549 451.119,25.400 451.998 C 25.252 452.877,24.966 453.697,24.765 453.822 C 24.564 453.946,24.400 454.416,24.400 454.866 C 24.400 455.370,24.202 455.609,23.886 455.488 C 23.518 455.347,23.410 455.649,23.507 456.545 C 23.644 457.814,22.321 460.988,21.851 460.518 C 21.713 460.380,21.600 461.006,21.600 461.910 C 21.600 462.813,21.420 463.664,21.200 463.800 C 20.980 463.936,20.800 464.397,20.800 464.824 C 20.800 465.251,20.535 465.600,20.210 465.600 C 19.762 465.600,19.680 465.902,19.870 466.850 C 20.056 467.780,19.951 468.196,19.460 468.470 C 19.079 468.683,18.800 469.339,18.800 470.020 C 18.800 470.669,18.620 471.200,18.400 471.200 C 18.180 471.200,18.000 471.830,18.000 472.600 C 18.000 473.370,17.820 474.000,17.600 474.000 C 17.380 474.000,17.200 474.456,17.200 475.013 C 17.200 475.569,16.931 476.128,16.602 476.254 C 16.274 476.381,16.099 476.637,16.215 476.824 C 16.537 477.345,15.962 479.224,15.557 478.974 C 15.361 478.852,15.200 479.303,15.200 479.976 C 15.200 480.775,15.000 481.200,14.624 481.200 C 14.307 481.200,13.919 481.408,13.762 481.662 C 13.585 481.948,13.652 482.015,13.938 481.838 C 14.249 481.646,14.400 481.953,14.400 482.776 C 14.400 483.449,14.247 484.000,14.061 484.000 C 13.082 484.000,12.453 487.353,12.525 492.183 C 12.591 496.524,12.526 497.077,12.000 496.679 C 11.670 496.430,12.075 496.925,12.900 497.780 C 13.725 498.634,14.400 499.663,14.400 500.067 C 14.400 500.470,14.535 500.800,14.700 500.801 C 14.865 500.801,15.540 501.607,16.200 502.592 C 16.860 503.577,17.535 504.386,17.700 504.391 C 17.865 504.396,18.000 504.670,18.000 505.000 C 18.000 505.330,18.270 505.600,18.600 505.600 C 18.930 505.600,19.200 505.780,19.200 506.000 C 19.200 506.220,19.579 506.400,20.043 506.400 C 20.614 506.400,20.814 506.586,20.663 506.980 C 20.515 507.366,20.633 507.485,21.017 507.338 C 21.335 507.216,21.704 507.404,21.839 507.758 C 21.992 508.157,22.562 508.402,23.343 508.406 C 24.084 508.410,24.401 508.539,24.116 508.720 C 23.769 508.940,23.866 509.174,24.458 509.543 C 24.912 509.827,25.164 509.866,25.018 509.630 C 24.841 509.343,25.494 509.200,26.976 509.200 C 28.199 509.200,29.200 509.380,29.200 509.600 C 29.200 509.860,34.659 510.000,44.776 510.000 C 54.729 510.000,60.442 510.144,60.600 510.400 C 60.759 510.657,67.093 510.800,78.290 510.800 C 87.884 510.800,95.658 510.733,95.567 510.651 C 95.475 510.569,88.754 510.389,80.632 510.250 C 72.510 510.111,65.775 509.908,65.665 509.799 C 65.556 509.689,66.442 509.596,67.633 509.592 C 74.895 509.564,86.411 509.094,87.600 508.777 C 88.370 508.572,90.384 508.403,92.076 508.402 C 93.768 508.401,95.264 508.220,95.400 508.000 C 95.536 507.780,96.852 507.599,98.324 507.598 C 99.963 507.596,101.463 507.354,102.194 506.973 C 102.850 506.630,104.470 506.317,105.794 506.275 C 108.628 506.187,110.006 504.000,107.227 504.000 L 106.000 504.000 106.000 501.353 C 106.000 498.904,105.940 498.722,105.200 498.916 C 104.760 499.031,104.400 498.931,104.400 498.693 C 104.400 498.455,103.969 498.666,103.442 499.160 C 102.650 499.904,102.521 500.332,102.695 501.630 C 102.894 503.112,102.847 503.200,101.853 503.200 C 100.916 503.200,100.800 503.045,100.800 501.800 C 100.800 500.633,100.656 500.400,99.938 500.400 C 99.101 500.400,99.097 500.376,99.800 499.600 C 100.198 499.160,100.779 498.800,101.091 498.800 C 102.822 498.800,102.740 504.368,102.874 376.893 C 102.943 310.444,102.873 256.155,102.717 256.251 C 102.202 256.570,101.273 254.207,101.199 252.389 C 101.091 249.739,101.101 249.713,102.405 249.258 C 103.974 248.711,104.240 247.913,103.425 246.197 C 102.652 244.567,102.605 244.556,100.900 245.596 M100.163 261.447 C 100.554 262.468,99.905 268.038,99.327 268.616 C 98.972 268.971,98.872 269.547,99.045 270.235 C 99.249 271.048,99.180 271.260,98.756 271.118 C 98.450 271.015,98.198 270.644,98.195 270.294 C 98.192 269.943,98.057 269.524,97.895 269.362 C 97.251 268.718,97.589 264.886,98.639 260.907 C 98.803 260.288,99.862 260.664,100.163 261.447 M109.200 505.200 C 109.200 505.640,109.380 506.000,109.600 506.000 C 109.820 506.000,110.000 505.640,110.000 505.200 C 110.000 504.760,109.820 504.400,109.600 504.400 C 109.380 504.400,109.200 504.760,109.200 505.200 M111.200 505.200 C 111.200 505.947,111.307 506.053,111.680 505.680 C 112.053 505.307,112.053 505.093,111.680 504.720 C 111.307 504.347,111.200 504.453,111.200 505.200  M -25 0 L -5 0 L -5 20 L -25 20 Z M 405 0 L 425 0 L 425 20 L 405 20 Z" stroke="none" fill="#80b5e2" fill-rule="evenodd" transform="translate(490,0)"></path><path id="path2" d="M346.200 8.400 C 345.885 8.909,346.812 8.909,347.600 8.400 C 348.088 8.085,348.036 8.011,347.324 8.006 C 346.842 8.003,346.336 8.180,346.200 8.400 M338.642 9.131 C 338.530 9.314,339.464 9.390,340.719 9.301 C 343.955 9.072,344.217 8.868,341.324 8.832 C 339.962 8.814,338.755 8.949,338.642 9.131 M332.400 10.400 C 331.642 10.890,332.870 10.890,334.400 10.400 C 335.380 10.086,335.376 10.079,334.200 10.046 C 333.540 10.027,332.730 10.187,332.400 10.400 M325.000 11.200 C 324.710 11.670,326.533 11.670,328.000 11.200 C 328.819 10.938,328.660 10.873,327.124 10.840 C 326.092 10.818,325.136 10.980,325.000 11.200 M319.341 12.100 C 319.238 12.265,317.543 12.400,315.576 12.400 C 313.609 12.400,312.000 12.569,312.000 12.775 C 312.000 12.981,311.415 13.232,310.700 13.333 C 308.790 13.603,312.779 13.296,317.480 12.811 C 322.033 12.340,324.809 11.581,321.465 11.720 C 320.400 11.764,319.445 11.935,319.341 12.100 M306.200 14.000 C 305.883 14.513,307.607 14.513,308.400 14.000 C 308.857 13.705,308.695 13.611,307.724 13.606 C 307.022 13.603,306.336 13.780,306.200 14.000 M298.000 14.800 C 298.000 15.026,296.825 15.206,295.300 15.213 C 293.563 15.221,292.323 15.435,291.824 15.813 C 291.296 16.212,290.054 16.400,287.947 16.400 C 286.132 16.400,284.735 16.582,284.576 16.838 C 284.406 17.114,283.213 17.222,281.353 17.131 C 279.157 17.022,278.400 17.115,278.400 17.492 C 278.400 17.862,277.487 18.000,275.033 18.000 C 272.731 18.000,271.615 18.155,271.503 18.490 C 271.391 18.828,270.356 18.965,268.183 18.932 C 265.815 18.896,264.918 19.032,264.593 19.477 C 264.260 19.932,263.460 20.038,261.130 19.934 C 258.827 19.832,258.146 19.920,258.293 20.300 C 258.438 20.676,257.640 20.800,255.076 20.800 C 253.085 20.800,251.609 20.972,251.529 21.213 C 251.453 21.441,250.043 21.666,248.396 21.713 C 246.663 21.763,245.177 22.011,244.871 22.300 C 244.571 22.585,243.319 22.800,241.966 22.800 C 240.659 22.800,239.277 22.963,238.895 23.161 C 238.513 23.360,236.310 23.749,234.000 24.025 C 231.690 24.302,228.720 24.685,227.400 24.878 C 222.633 25.573,219.749 25.939,217.000 26.198 C 215.460 26.343,213.750 26.621,213.200 26.816 C 212.650 27.011,210.490 27.371,208.400 27.615 C 203.439 28.195,200.327 28.613,195.200 29.387 C 192.890 29.736,189.740 30.192,188.200 30.400 C 181.029 31.371,174.841 34.486,173.639 37.732 C 173.550 37.971,173.055 38.622,172.539 39.179 C 172.022 39.736,171.600 40.511,171.600 40.901 C 171.600 41.292,171.429 41.923,171.219 42.305 C 170.863 42.954,169.086 47.894,167.730 52.000 C 167.404 52.990,166.986 54.160,166.802 54.600 C 166.618 55.040,166.146 56.390,165.753 57.600 C 165.360 58.810,164.895 59.971,164.719 60.180 C 164.544 60.389,164.400 60.976,164.400 61.485 C 164.400 61.994,164.244 62.723,164.053 63.105 C 163.629 63.953,162.826 66.215,160.540 73.000 C 159.577 75.860,158.611 78.513,158.394 78.895 C 158.177 79.277,158.000 79.941,158.000 80.371 C 158.000 80.801,157.834 81.255,157.631 81.381 C 157.428 81.506,157.135 82.186,156.980 82.891 C 156.714 84.103,156.571 84.466,155.600 86.395 C 155.380 86.832,155.200 87.612,155.200 88.128 C 155.200 88.644,155.081 89.186,154.935 89.332 C 154.789 89.478,154.354 90.453,153.968 91.499 C 153.583 92.544,152.892 94.387,152.434 95.594 C 151.975 96.801,151.600 98.106,151.600 98.494 C 151.600 98.882,151.464 99.200,151.297 99.200 C 150.817 99.200,150.000 102.232,150.000 104.017 C 150.000 105.010,149.842 105.550,149.597 105.398 C 148.954 105.001,148.626 106.429,149.162 107.288 C 149.591 107.975,149.558 108.041,148.891 107.829 C 148.075 107.570,147.199 110.128,147.047 113.210 C 146.993 114.316,146.797 114.626,146.089 114.728 C 145.402 114.827,145.200 115.121,145.200 116.028 C 145.200 117.209,145.773 117.627,146.121 116.700 C 146.567 115.509,147.514 117.711,147.099 118.976 C 146.878 119.649,146.722 120.965,146.752 121.900 C 146.782 122.835,146.625 123.600,146.403 123.600 C 146.181 123.600,146.000 123.324,146.000 122.986 C 146.000 122.228,144.837 120.400,144.354 120.400 C 144.159 120.400,144.000 120.632,144.000 120.915 C 144.000 121.199,143.646 122.126,143.213 122.975 C 142.780 123.824,142.522 124.673,142.639 124.863 C 142.962 125.385,142.395 126.844,141.971 126.582 C 141.767 126.456,141.600 126.730,141.600 127.190 C 141.600 127.651,141.343 128.427,141.030 128.914 C 140.274 130.087,139.823 132.644,140.318 132.949 C 140.736 133.208,141.487 131.630,141.721 130.000 C 142.504 124.555,145.368 126.696,144.928 132.397 C 144.794 134.145,144.530 135.480,144.342 135.364 C 144.154 135.248,144.000 135.354,144.000 135.600 C 144.000 135.846,143.833 135.944,143.629 135.818 C 143.424 135.691,143.199 135.996,143.129 136.494 C 143.058 136.992,142.775 137.422,142.500 137.450 C 142.225 137.478,141.860 137.523,141.690 137.550 C 141.519 137.578,141.339 139.057,141.288 140.839 C 141.238 142.620,141.043 144.352,140.854 144.689 C 140.477 145.363,141.450 147.740,141.971 147.418 C 142.141 147.313,142.667 147.673,143.140 148.217 C 144.177 149.409,144.346 152.000,143.387 152.000 C 143.050 152.000,142.645 152.349,142.487 152.776 C 142.329 153.203,142.020 153.518,141.800 153.476 C 141.249 153.371,141.048 156.808,141.574 157.334 C 141.875 157.635,142.000 157.268,142.000 156.080 C 142.000 155.156,142.180 154.400,142.400 154.400 C 142.763 154.400,142.990 156.908,142.821 159.058 C 142.784 159.529,143.034 160.586,143.377 161.406 C 144.486 164.061,144.310 500.814,143.199 501.508 C 141.763 502.405,143.353 504.455,145.400 504.347 C 148.659 504.175,150.400 504.407,150.400 505.013 C 150.400 505.796,149.792 506.017,147.145 506.197 C 143.742 506.428,138.487 507.352,139.600 507.523 C 140.150 507.607,140.780 507.816,141.000 507.986 C 141.459 508.342,164.200 508.687,210.600 509.042 C 228.420 509.178,244.170 509.380,245.600 509.490 C 250.055 509.833,325.623 509.960,329.000 509.630 C 331.092 509.426,326.658 509.299,316.200 509.265 C 274.294 509.129,229.382 508.352,227.775 507.735 C 226.067 507.080,228.810 506.092,232.501 506.033 C 237.631 505.951,238.461 504.987,233.732 504.603 C 226.917 504.050,224.638 503.359,225.642 502.149 C 225.893 501.847,226.352 501.600,226.662 501.600 C 226.971 501.600,227.329 501.330,227.455 501.000 C 227.582 500.670,228.026 500.400,228.443 500.400 C 229.407 500.400,229.663 30.873,228.700 30.094 C 228.425 29.871,227.255 29.563,226.100 29.407 C 224.945 29.252,224.000 28.942,224.000 28.719 C 224.000 28.491,224.419 28.418,224.958 28.554 C 225.590 28.712,225.990 28.602,226.133 28.231 C 226.252 27.921,227.396 27.452,228.675 27.188 C 229.954 26.925,232.170 26.270,233.600 25.733 C 235.030 25.195,237.370 24.661,238.800 24.546 C 240.230 24.430,242.300 24.097,243.400 23.806 C 246.050 23.105,251.260 22.209,258.600 21.193 C 261.900 20.737,266.760 19.994,269.400 19.543 C 272.040 19.092,275.370 18.574,276.800 18.392 C 278.230 18.210,280.750 17.878,282.400 17.653 C 284.050 17.429,287.110 17.053,289.200 16.818 C 291.290 16.583,293.450 16.227,294.000 16.028 C 294.935 15.689,296.243 15.508,302.800 14.805 L 305.400 14.526 301.700 14.463 C 299.458 14.425,298.000 14.558,298.000 14.800 M150.400 115.988 C 150.400 117.089,150.298 117.172,149.000 117.123 C 147.840 117.079,147.600 116.919,147.600 116.191 C 147.600 115.480,147.783 115.346,148.553 115.493 C 149.077 115.593,149.628 115.478,149.777 115.238 C 150.222 114.518,150.400 114.733,150.400 115.988 M146.854 138.700 C 147.181 145.418,146.750 146.841,144.335 147.017 C 142.789 147.130,142.681 147.084,143.340 146.598 C 143.747 146.299,143.961 145.861,143.816 145.627 C 143.671 145.392,143.722 145.200,143.929 145.200 C 144.346 145.200,145.200 142.178,145.200 140.703 C 145.200 138.535,146.754 136.653,146.854 138.700 M137.861 139.287 C 137.554 140.461,137.831 140.663,138.369 139.659 C 138.613 139.203,138.647 138.752,138.447 138.629 C 138.251 138.508,137.988 138.804,137.861 139.287 M141.466 161.468 C 141.026 161.907,141.161 502.517,141.601 503.200 C 142.071 503.929,142.005 531.952,142.000 332.031 C 141.995 163.231,141.988 160.945,141.466 161.468 M398.012 509.184 C 397.688 509.389,397.563 509.696,397.733 509.867 C 397.904 510.037,398.169 509.984,398.322 509.748 C 398.475 509.513,398.870 509.217,399.200 509.092 C 399.733 508.889,399.733 508.860,399.200 508.838 C 398.870 508.824,398.335 508.980,398.012 509.184  M -25 0 L -5 0 L -5 20 L -25 20 Z M 405 0 L 425 0 L 425 20 L 405 20 Z" stroke="none" fill="#9897e6" fill-rule="evenodd" transform="translate(950,0)"></path><path id="path3" d="M392.236 3.393 C 391.375 3.699,389.035 4.066,387.036 4.207 C 385.036 4.348,382.352 4.719,381.072 5.031 C 378.226 5.724,372.588 6.392,369.549 6.397 C 368.138 6.399,367.129 6.604,366.845 6.946 C 366.193 7.731,362.460 8.365,357.517 8.531 C 355.161 8.609,353.001 8.865,352.717 9.097 C 352.433 9.330,350.779 9.758,349.042 10.048 C 342.891 11.075,342.462 13.255,348.266 13.997 L 350.600 14.295 348.726 14.348 C 347.695 14.376,346.390 14.576,345.826 14.790 L 344.800 15.180 344.800 256.403 L 344.800 497.626 345.700 497.988 C 346.352 498.250,346.414 498.356,345.924 498.375 C 344.885 498.414,344.647 499.168,345.408 500.009 C 345.786 500.426,346.187 501.585,346.299 502.584 L 346.504 504.400 344.852 504.400 C 343.943 504.400,343.200 504.580,343.200 504.800 C 343.200 505.020,343.740 505.200,344.400 505.200 C 345.060 505.200,345.600 505.380,345.600 505.600 C 345.600 505.820,344.574 506.000,343.320 506.000 C 339.647 506.000,341.368 506.711,345.600 506.942 C 347.690 507.056,353.990 507.421,359.600 507.753 C 376.890 508.775,396.183 508.794,397.188 507.790 L 397.999 506.979 398.001 258.119 C 398.002 93.210,397.868 8.904,397.603 8.207 C 397.301 7.412,397.359 6.853,397.840 5.922 C 399.279 3.140,396.484 1.879,392.236 3.393 M335.400 12.379 C 334.651 12.682,334.671 12.736,335.711 13.220 C 336.894 13.772,337.948 13.287,337.422 12.435 C 337.113 11.935,336.538 11.920,335.400 12.379  M -25 0 L -5 0 L -5 20 L -25 20 Z M 405 0 L 425 0 L 425 20 L 405 20 Z" stroke="none" fill="#da43f3" fill-rule="evenodd" transform="translate(30,584)"></path><path id="path4" d="M396.077 0.285 C 394.534 0.580,395.342 1.388,397.393 1.600 C 398.842 1.750,399.401 2.000,399.634 2.600 C 399.861 3.186,399.951 2.945,399.972 1.700 L 400.000 0.000 398.500 0.054 C 397.675 0.084,396.585 0.188,396.077 0.285 M387.100 1.507 C 386.055 1.582,385.200 1.814,385.200 2.022 C 385.200 2.230,384.401 2.400,383.424 2.400 C 382.447 2.400,381.536 2.580,381.400 2.800 C 381.245 3.051,382.121 3.200,383.753 3.200 C 385.183 3.200,386.464 3.020,386.600 2.800 C 386.736 2.580,387.895 2.400,389.175 2.400 C 390.551 2.400,391.670 2.196,391.913 1.900 C 392.356 1.360,390.849 1.237,387.100 1.507 M371.373 3.587 C 371.161 3.799,370.360 4.002,369.593 4.037 C 367.628 4.128,366.751 4.397,367.018 4.829 C 367.331 5.335,373.200 5.308,373.200 4.800 C 373.200 4.580,373.785 4.398,374.500 4.396 C 376.498 4.389,378.800 3.935,378.800 3.548 C 378.800 3.070,371.854 3.106,371.373 3.587 M357.600 5.600 C 357.600 5.820,356.700 6.000,355.600 6.000 C 354.500 6.000,353.600 6.160,353.600 6.355 C 353.600 7.266,359.269 7.258,359.832 6.347 C 359.951 6.156,361.217 6.000,362.647 6.000 C 364.279 6.000,365.155 5.851,365.000 5.600 C 364.864 5.380,363.143 5.200,361.176 5.200 C 359.059 5.200,357.600 5.363,357.600 5.600 M343.200 7.433 C 342.650 7.739,341.165 7.991,339.900 7.994 C 338.635 7.997,337.600 8.180,337.600 8.400 C 337.600 8.637,336.141 8.800,334.024 8.800 C 332.057 8.800,330.336 8.980,330.200 9.200 C 330.064 9.420,329.255 9.600,328.402 9.600 C 327.550 9.600,326.393 9.774,325.832 9.988 C 325.272 10.201,323.728 10.408,322.401 10.448 C 321.075 10.487,319.536 10.755,318.982 11.043 C 318.427 11.331,318.080 11.394,318.210 11.183 C 318.341 10.972,317.987 10.800,317.424 10.800 C 316.861 10.800,316.400 10.980,316.400 11.200 C 316.400 11.420,315.511 11.600,314.424 11.600 C 313.337 11.600,312.336 11.780,312.200 12.000 C 312.064 12.220,310.613 12.400,308.976 12.400 C 306.804 12.400,306.000 12.540,306.000 12.919 C 306.000 13.308,305.351 13.397,303.410 13.273 C 300.610 13.095,298.800 13.383,298.800 14.008 C 298.800 14.496,305.867 14.539,306.168 14.053 C 306.286 13.861,307.646 13.581,309.191 13.428 C 310.736 13.276,312.000 12.982,312.000 12.776 C 312.000 12.569,313.590 12.400,315.533 12.400 C 317.477 12.400,319.185 12.282,319.330 12.137 C 319.474 11.992,320.629 11.807,321.896 11.724 C 323.163 11.642,324.560 11.406,325.000 11.200 C 325.440 10.994,327.240 10.746,329.000 10.650 C 333.164 10.421,338.095 9.665,338.578 9.182 C 338.788 8.972,340.533 8.800,342.456 8.800 C 344.379 8.800,346.064 8.620,346.200 8.400 C 346.336 8.180,347.697 8.000,349.224 8.000 C 351.425 8.000,352.000 7.876,352.000 7.400 C 352.000 6.581,344.686 6.609,343.200 7.433 M289.600 14.800 C 289.600 15.020,288.646 15.200,287.480 15.200 C 286.314 15.200,285.148 15.412,284.890 15.670 C 284.612 15.948,283.464 16.101,282.080 16.045 C 280.457 15.978,279.597 16.122,279.271 16.514 C 278.876 16.990,279.237 17.091,281.565 17.159 C 283.153 17.206,284.438 17.061,284.588 16.820 C 284.733 16.585,286.213 16.400,287.947 16.400 C 290.054 16.400,291.296 16.212,291.824 15.813 C 292.323 15.435,293.563 15.221,295.300 15.213 C 296.825 15.206,298.000 15.026,298.000 14.800 C 298.000 14.571,296.800 14.400,295.200 14.400 C 293.600 14.400,292.400 14.571,292.400 14.800 C 292.400 15.020,292.130 15.200,291.800 15.200 C 291.470 15.200,291.200 15.020,291.200 14.800 C 291.200 14.580,290.840 14.400,290.400 14.400 C 289.960 14.400,289.600 14.580,289.600 14.800 M275.600 16.787 C 275.270 17.004,274.685 17.084,274.300 16.964 C 273.446 16.698,272.000 17.115,272.000 17.627 C 272.000 17.832,273.453 18.000,275.229 18.000 C 278.089 18.000,278.443 17.920,278.326 17.300 C 278.174 16.500,276.512 16.187,275.600 16.787 M262.400 18.400 C 262.400 18.620,261.500 18.800,260.400 18.800 C 258.889 18.800,258.400 18.947,258.400 19.400 C 258.400 19.880,258.997 20.000,261.376 20.000 C 264.418 20.000,264.988 19.756,264.559 18.636 C 264.295 17.949,262.400 17.741,262.400 18.400 M266.230 18.351 C 266.111 18.545,266.568 18.814,267.247 18.949 C 268.714 19.243,271.600 18.845,271.600 18.349 C 271.600 17.892,266.513 17.894,266.230 18.351 M252.500 19.886 C 251.214 20.351,252.284 20.694,255.241 20.765 C 257.753 20.826,258.442 20.726,258.307 20.322 C 258.136 19.810,253.643 19.473,252.500 19.886 M249.200 20.400 C 249.200 20.620,248.311 20.800,247.224 20.800 C 246.137 20.800,245.136 20.980,245.000 21.200 C 244.859 21.429,242.804 21.600,240.200 21.600 C 237.596 21.600,235.541 21.771,235.400 22.000 C 235.264 22.220,234.307 22.400,233.274 22.400 C 232.240 22.400,230.766 22.585,229.997 22.812 C 229.229 23.038,227.430 23.311,226.000 23.418 C 222.760 23.662,222.095 23.772,221.745 24.122 C 221.592 24.275,220.157 24.400,218.557 24.400 C 216.957 24.400,215.536 24.580,215.400 24.800 C 215.264 25.020,213.644 25.200,211.800 25.200 C 209.956 25.200,208.336 25.380,208.200 25.600 C 208.064 25.820,207.018 26.001,205.876 26.002 C 204.734 26.004,203.284 26.274,202.654 26.602 C 201.889 27.002,200.329 27.200,197.954 27.200 C 195.851 27.200,194.400 27.363,194.400 27.600 C 194.400 27.822,193.341 28.000,192.024 28.000 C 190.717 28.000,189.536 28.180,189.400 28.400 C 189.264 28.620,187.745 28.800,186.025 28.800 C 183.733 28.800,182.765 28.960,182.400 29.400 C 182.126 29.730,181.384 30.000,180.751 30.000 C 180.118 30.000,179.600 30.180,179.600 30.400 C 179.600 30.620,179.190 30.800,178.688 30.800 C 178.187 30.800,177.517 31.160,177.200 31.600 C 176.883 32.040,176.393 32.400,176.112 32.400 C 175.830 32.400,175.600 32.626,175.600 32.902 C 175.600 33.179,175.069 33.640,174.419 33.927 C 173.769 34.215,173.114 34.844,172.962 35.325 C 172.810 35.806,172.351 36.491,171.943 36.847 C 171.534 37.203,171.200 37.698,171.200 37.947 C 171.200 38.196,171.034 38.400,170.832 38.400 C 170.629 38.400,170.345 38.940,170.200 39.600 C 170.055 40.260,169.771 40.800,169.568 40.800 C 169.366 40.800,169.200 41.250,169.200 41.800 C 169.200 42.350,169.020 42.800,168.800 42.800 C 168.580 42.800,168.400 43.329,168.400 43.976 C 168.400 44.623,168.220 45.264,168.000 45.400 C 167.780 45.536,167.600 46.065,167.600 46.575 C 167.600 47.085,167.330 47.726,167.000 48.000 C 166.670 48.274,166.400 49.016,166.400 49.649 C 166.400 50.282,166.259 50.800,166.087 50.800 C 165.915 50.800,165.734 51.295,165.684 51.900 C 165.634 52.505,165.415 53.060,165.197 53.133 C 164.978 53.207,164.800 53.715,164.800 54.262 C 164.800 54.809,164.530 55.527,164.200 55.857 C 163.870 56.187,163.600 56.884,163.600 57.405 C 163.600 57.926,163.420 58.464,163.200 58.600 C 162.980 58.736,162.800 59.377,162.800 60.024 C 162.800 60.671,162.620 61.200,162.400 61.200 C 162.180 61.200,162.000 61.639,162.000 62.176 C 162.000 62.713,161.820 63.264,161.600 63.400 C 161.380 63.536,161.200 64.065,161.200 64.575 C 161.200 65.085,160.930 65.726,160.600 66.000 C 160.270 66.274,160.000 66.915,160.000 67.425 C 160.000 67.935,159.820 68.464,159.600 68.600 C 159.380 68.736,159.200 69.377,159.200 70.024 C 159.200 70.671,159.020 71.200,158.800 71.200 C 158.580 71.200,158.400 71.577,158.400 72.038 C 158.400 72.499,158.104 73.444,157.743 74.138 C 156.514 76.499,156.400 76.789,156.400 77.571 C 156.400 78.001,156.220 78.464,156.000 78.600 C 155.780 78.736,155.600 79.377,155.600 80.024 C 155.600 80.671,155.420 81.200,155.200 81.200 C 154.980 81.200,154.799 81.515,154.798 81.900 C 154.796 82.285,154.526 83.116,154.198 83.746 C 153.869 84.376,153.600 85.321,153.600 85.846 C 153.600 86.371,153.420 86.800,153.200 86.800 C 152.980 86.800,152.800 87.531,152.800 88.424 C 152.800 89.430,152.644 89.951,152.390 89.794 C 152.165 89.655,152.006 89.689,152.037 89.870 C 152.210 90.863,151.925 92.018,151.371 92.571 C 151.026 92.917,150.866 93.200,151.017 93.200 C 151.168 93.200,151.001 93.644,150.646 94.186 C 150.291 94.728,150.000 95.528,150.000 95.962 C 150.000 96.397,149.820 96.864,149.600 97.000 C 149.380 97.136,149.200 97.777,149.200 98.424 C 149.200 99.071,149.001 99.600,148.757 99.600 C 148.514 99.600,148.418 99.870,148.545 100.200 C 148.671 100.530,148.601 100.800,148.387 100.800 C 148.174 100.800,148.000 101.149,148.000 101.576 C 148.000 102.003,147.820 102.464,147.600 102.600 C 147.380 102.736,147.200 103.377,147.200 104.024 C 147.200 104.671,147.020 105.200,146.800 105.200 C 146.580 105.200,146.400 105.639,146.400 106.176 C 146.400 106.713,146.243 107.250,146.050 107.369 C 145.858 107.488,145.700 108.045,145.700 108.606 C 145.700 109.167,145.407 109.950,145.050 110.345 C 144.692 110.740,144.400 111.353,144.400 111.708 C 144.400 112.063,144.220 112.464,144.000 112.600 C 143.780 112.736,143.600 113.377,143.600 114.024 C 143.600 114.671,143.420 115.200,143.200 115.200 C 142.980 115.200,142.800 115.753,142.800 116.429 C 142.800 117.104,142.530 117.927,142.200 118.257 C 141.870 118.587,141.600 119.294,141.600 119.829 C 141.600 120.363,141.409 120.800,141.176 120.800 C 140.943 120.800,140.844 120.948,140.956 121.129 C 141.068 121.309,140.898 121.960,140.580 122.574 C 140.261 123.189,140.000 123.995,140.000 124.366 C 140.000 124.737,139.815 125.225,139.589 125.451 C 139.363 125.677,139.138 126.415,139.089 127.092 C 139.040 127.768,138.884 128.251,138.742 128.163 C 138.418 127.964,138.000 129.018,138.000 130.033 C 138.000 130.455,137.820 130.800,137.600 130.800 C 137.380 130.800,137.200 131.430,137.200 132.200 C 137.200 132.970,137.020 133.600,136.800 133.600 C 136.580 133.600,136.400 134.028,136.400 134.551 C 136.400 135.074,136.130 135.726,135.800 136.000 C 135.470 136.274,135.200 136.896,135.200 137.382 C 135.200 137.869,135.075 138.391,134.923 138.544 C 134.771 138.696,134.585 139.221,134.511 139.710 C 134.437 140.200,134.202 140.660,133.988 140.733 C 133.775 140.807,133.600 141.467,133.600 142.200 C 133.600 142.933,133.412 143.596,133.183 143.672 C 132.953 143.749,132.712 144.311,132.647 144.921 C 132.582 145.532,132.320 146.240,132.064 146.496 C 131.809 146.751,131.600 147.464,131.600 148.080 C 131.600 148.696,131.420 149.200,131.200 149.200 C 130.980 149.200,130.800 149.729,130.800 150.376 C 130.800 151.023,130.620 151.664,130.400 151.800 C 130.180 151.936,130.000 152.557,130.000 153.181 C 130.000 153.819,129.738 154.415,129.400 154.545 C 129.070 154.671,128.800 155.130,128.800 155.564 C 128.800 155.998,128.620 156.464,128.400 156.600 C 128.180 156.736,128.000 157.366,128.000 158.000 C 128.000 158.634,127.820 159.264,127.600 159.400 C 127.380 159.536,127.200 160.099,127.200 160.652 C 127.200 161.205,126.930 161.927,126.600 162.257 C 126.270 162.587,126.000 163.474,126.000 164.229 C 126.000 164.983,125.820 165.600,125.600 165.600 C 125.380 165.600,125.200 165.924,125.200 166.320 C 125.200 166.716,124.975 167.282,124.700 167.579 C 124.294 168.016,124.312 168.058,124.800 167.800 C 125.288 167.542,125.306 167.584,124.900 168.021 C 124.625 168.318,124.400 168.884,124.400 169.280 C 124.400 169.676,124.209 170.000,123.976 170.000 C 123.743 170.000,123.637 170.137,123.741 170.304 C 123.844 170.471,123.648 171.236,123.305 172.004 C 122.962 172.772,122.613 173.756,122.529 174.191 C 122.446 174.627,122.202 175.158,121.989 175.371 C 121.775 175.585,121.600 176.174,121.600 176.680 C 121.600 177.186,121.420 177.600,121.200 177.600 C 120.980 177.600,120.800 178.127,120.800 178.771 C 120.800 179.416,120.575 180.181,120.300 180.471 C 120.025 180.762,119.740 181.360,119.667 181.800 C 119.593 182.240,119.368 182.771,119.167 182.980 C 118.965 183.189,118.800 183.763,118.800 184.256 C 118.800 184.749,118.620 185.264,118.400 185.400 C 118.180 185.536,118.000 186.072,118.000 186.590 C 118.000 187.109,117.812 187.596,117.583 187.672 C 117.353 187.749,117.117 188.267,117.058 188.823 C 116.998 189.379,116.786 190.096,116.585 190.417 C 116.384 190.738,116.159 191.447,116.084 191.993 C 116.009 192.538,115.804 193.078,115.629 193.193 C 115.454 193.307,115.207 193.940,115.079 194.600 C 114.549 197.353,114.255 198.217,113.742 198.520 C 113.444 198.696,113.200 199.180,113.200 199.596 C 113.200 200.012,113.043 200.450,112.850 200.569 C 112.658 200.688,112.500 201.276,112.500 201.876 C 112.500 202.476,112.298 203.034,112.050 203.117 C 111.803 203.199,111.600 203.442,111.600 203.657 C 111.600 203.872,111.825 203.920,112.100 203.765 C 112.500 203.539,112.500 203.590,112.100 204.021 C 111.825 204.318,111.600 204.869,111.600 205.247 C 111.600 205.624,111.399 206.000,111.154 206.082 C 110.909 206.164,110.652 206.745,110.583 207.374 C 110.514 208.003,110.242 208.651,109.978 208.814 C 109.714 208.977,109.601 209.279,109.728 209.484 C 109.855 209.689,109.698 210.360,109.380 210.974 C 109.061 211.589,108.800 212.521,108.800 213.046 C 108.800 213.571,108.659 214.000,108.487 214.000 C 108.217 214.000,108.013 214.927,107.898 216.678 C 107.881 216.941,107.706 217.121,107.510 217.078 C 107.314 217.035,106.916 217.672,106.626 218.493 C 106.336 219.314,106.240 219.899,106.412 219.792 C 106.584 219.686,106.517 220.048,106.263 220.596 C 106.008 221.145,105.665 221.595,105.500 221.597 C 105.335 221.599,105.200 221.791,105.200 222.024 C 105.200 222.257,105.425 222.320,105.700 222.165 C 106.100 221.939,106.100 221.990,105.700 222.421 C 105.425 222.718,105.200 223.380,105.200 223.893 C 105.200 224.405,104.930 224.929,104.600 225.055 C 104.270 225.182,104.000 225.616,104.000 226.019 C 104.000 226.423,103.820 226.864,103.600 227.000 C 103.380 227.136,103.200 227.777,103.200 228.424 C 103.200 229.071,103.001 229.600,102.757 229.600 C 102.514 229.600,102.410 229.849,102.527 230.154 C 102.644 230.459,102.475 231.086,102.151 231.548 C 101.828 232.010,101.496 233.066,101.414 233.894 C 101.333 234.722,101.108 235.367,100.916 235.328 C 100.724 235.288,100.537 235.645,100.501 236.122 C 100.465 236.598,100.248 237.051,100.018 237.127 C 99.788 237.204,99.600 237.442,99.600 237.657 C 99.600 237.872,99.825 237.920,100.100 237.765 C 100.500 237.539,100.500 237.590,100.100 238.021 C 99.825 238.318,99.600 238.884,99.600 239.280 C 99.600 239.676,99.420 240.000,99.200 240.000 C 98.980 240.000,98.800 240.521,98.800 241.157 C 98.800 241.832,98.542 242.413,98.181 242.552 C 97.841 242.682,97.592 243.017,97.629 243.295 C 97.776 244.419,97.581 245.635,97.283 245.451 C 97.109 245.344,96.937 245.645,96.901 246.122 C 96.865 246.598,96.648 247.051,96.418 247.127 C 96.188 247.204,96.000 247.442,96.000 247.657 C 96.000 247.872,96.225 247.920,96.500 247.765 C 96.900 247.539,96.900 247.590,96.500 248.021 C 96.225 248.318,96.000 248.869,96.000 249.247 C 96.000 249.624,95.799 250.000,95.554 250.082 C 95.309 250.164,95.050 250.760,94.979 251.407 C 94.908 252.054,94.659 252.647,94.425 252.725 C 94.191 252.803,94.000 253.381,94.000 254.010 C 94.000 254.638,93.820 255.264,93.600 255.400 C 93.380 255.536,93.200 256.177,93.200 256.824 C 93.200 257.471,93.058 258.000,92.885 258.000 C 92.712 258.000,92.527 258.565,92.475 259.255 C 92.356 260.808,92.076 261.294,91.504 260.941 C 91.233 260.773,91.150 260.894,91.289 261.255 C 91.412 261.577,91.269 262.281,90.971 262.820 C 90.673 263.359,90.422 264.205,90.414 264.700 C 90.406 265.195,90.220 265.600,90.000 265.600 C 89.780 265.600,89.600 266.153,89.600 266.829 C 89.600 267.504,89.330 268.327,89.000 268.657 C 88.670 268.987,88.400 269.594,88.400 270.005 C 88.400 270.416,88.220 270.864,88.000 271.000 C 87.780 271.136,87.600 271.741,87.600 272.344 C 87.600 272.947,87.375 273.682,87.100 273.979 C 86.694 274.416,86.712 274.458,87.200 274.200 C 87.688 273.942,87.706 273.984,87.300 274.421 C 87.025 274.718,86.800 275.385,86.800 275.904 C 86.800 276.431,86.623 276.738,86.400 276.600 C 86.180 276.464,85.973 276.678,85.939 277.076 C 85.906 277.474,85.859 278.033,85.836 278.317 C 85.812 278.601,85.547 278.986,85.245 279.172 C 84.944 279.358,84.805 279.684,84.936 279.896 C 85.067 280.109,84.916 280.624,84.600 281.041 C 84.284 281.458,84.020 282.284,84.013 282.876 C 84.006 283.468,83.820 284.064,83.600 284.200 C 83.380 284.336,83.200 284.887,83.200 285.424 C 83.200 285.961,83.009 286.400,82.776 286.400 C 82.543 286.400,82.464 286.580,82.600 286.800 C 82.736 287.020,82.642 287.200,82.390 287.200 C 82.139 287.200,82.014 287.425,82.114 287.700 C 82.213 287.975,82.022 288.740,81.690 289.400 C 80.541 291.683,80.400 291.990,80.400 292.218 C 80.400 292.344,80.625 292.320,80.900 292.165 C 81.300 291.939,81.300 291.990,80.900 292.421 C 80.625 292.718,80.400 293.248,80.400 293.600 C 80.400 293.952,80.190 294.450,79.933 294.707 C 79.378 295.262,78.415 297.908,78.406 298.900 C 78.403 299.285,78.220 299.600,78.000 299.600 C 77.780 299.600,77.600 300.140,77.600 300.800 C 77.600 301.460,77.420 302.000,77.200 302.000 C 76.980 302.000,76.800 302.720,76.800 303.600 C 76.800 304.572,76.624 305.161,76.353 305.100 C 76.107 305.045,75.850 305.339,75.781 305.752 C 75.712 306.166,75.463 306.697,75.228 306.932 C 74.992 307.168,74.800 307.864,74.800 308.480 C 74.800 309.096,74.620 309.600,74.400 309.600 C 74.180 309.600,74.000 310.215,74.000 310.967 C 74.000 311.718,73.818 312.394,73.596 312.468 C 73.374 312.542,73.108 313.039,73.005 313.572 C 72.903 314.105,72.635 314.725,72.409 314.951 C 72.184 315.176,72.000 315.864,72.000 316.480 C 72.000 317.096,71.858 317.600,71.685 317.600 C 71.512 317.600,71.326 318.185,71.272 318.900 C 71.219 319.615,71.000 320.260,70.787 320.334 C 70.573 320.407,70.287 321.169,70.149 322.026 C 70.012 322.884,69.743 323.488,69.550 323.369 C 69.358 323.250,69.200 323.603,69.200 324.153 C 69.200 324.703,69.020 325.264,68.800 325.400 C 68.580 325.536,68.400 326.177,68.400 326.824 C 68.400 327.471,68.220 328.000,68.000 328.000 C 67.780 328.000,67.600 328.518,67.600 329.151 C 67.600 329.784,67.322 330.533,66.982 330.815 C 66.642 331.097,66.449 331.552,66.554 331.825 C 66.659 332.099,66.493 332.655,66.185 333.061 C 65.877 333.468,65.620 334.295,65.613 334.900 C 65.606 335.505,65.420 336.000,65.200 336.000 C 64.980 336.000,64.800 336.731,64.800 337.624 C 64.800 338.604,64.642 339.149,64.400 339.000 C 64.021 338.766,63.933 338.938,63.840 340.100 C 63.818 340.375,63.659 340.705,63.486 340.832 C 63.313 340.960,63.077 341.590,62.962 342.232 C 62.847 342.875,62.583 343.571,62.376 343.780 C 62.169 343.989,62.000 344.563,62.000 345.056 C 62.000 345.549,61.820 346.064,61.600 346.200 C 61.380 346.336,61.200 346.957,61.200 347.581 C 61.200 348.204,60.953 348.809,60.650 348.925 C 60.347 349.042,60.100 349.621,60.100 350.214 C 60.100 350.806,59.888 351.422,59.629 351.582 C 59.370 351.742,59.189 352.037,59.226 352.237 C 59.402 353.169,59.166 354.826,58.883 354.651 C 58.709 354.544,58.540 354.805,58.508 355.232 C 58.475 355.659,58.173 356.285,57.835 356.623 C 57.479 356.979,57.277 357.727,57.355 358.400 C 57.430 359.040,57.315 359.527,57.100 359.482 C 56.885 359.437,56.635 359.846,56.543 360.391 C 56.452 360.937,56.202 361.558,55.989 361.771 C 55.775 361.985,55.600 362.765,55.600 363.504 C 55.600 364.297,55.436 364.746,55.200 364.600 C 54.824 364.368,54.746 364.630,54.607 366.600 C 54.575 367.040,54.314 367.348,54.026 367.284 C 53.715 367.215,53.591 367.399,53.721 367.738 C 53.841 368.051,53.652 368.719,53.301 369.220 C 52.808 369.924,52.792 370.058,53.231 369.808 C 53.692 369.544,53.705 369.585,53.300 370.021 C 53.025 370.318,52.800 370.884,52.800 371.280 C 52.800 371.676,52.620 372.000,52.400 372.000 C 52.180 372.000,52.000 372.518,52.000 373.151 C 52.000 373.784,51.722 374.533,51.382 374.815 C 51.042 375.097,50.848 375.549,50.952 375.818 C 51.055 376.088,50.905 376.644,50.617 377.054 C 50.028 377.896,50.000 378.002,50.000 379.424 C 50.000 380.004,49.827 380.340,49.600 380.200 C 49.362 380.053,49.200 380.533,49.200 381.389 C 49.200 382.313,48.980 382.909,48.584 383.062 C 48.160 383.224,48.024 383.658,48.149 384.449 C 48.279 385.278,48.165 385.600,47.741 385.600 C 47.418 385.600,47.232 385.735,47.329 385.900 C 47.427 386.065,47.320 386.650,47.092 387.200 C 46.865 387.750,46.605 388.650,46.515 389.200 C 46.425 389.750,46.182 390.260,45.975 390.333 C 45.769 390.407,45.600 390.977,45.600 391.600 C 45.600 392.223,45.399 392.800,45.154 392.882 C 44.909 392.964,44.652 393.545,44.583 394.174 C 44.514 394.803,44.255 395.442,44.008 395.595 C 43.760 395.748,43.589 396.037,43.626 396.237 C 43.829 397.314,43.551 398.817,43.190 398.594 C 42.965 398.455,42.806 398.489,42.837 398.670 C 43.012 399.672,42.722 400.820,42.152 401.390 C 41.796 401.747,41.610 402.143,41.738 402.272 C 41.867 402.400,41.708 402.881,41.386 403.342 C 41.064 403.802,40.800 404.577,40.800 405.065 C 40.800 405.553,40.620 406.064,40.400 406.200 C 40.180 406.336,40.000 406.851,40.000 407.344 C 40.000 407.837,39.775 408.482,39.500 408.779 C 39.098 409.212,39.104 409.258,39.533 409.015 C 39.826 408.849,39.634 409.407,39.107 410.256 C 38.086 411.900,37.873 414.019,38.700 414.298 C 38.975 414.391,39.200 414.179,39.200 413.828 C 39.200 413.477,39.358 412.877,39.551 412.495 C 40.555 410.509,41.200 408.667,41.200 407.786 C 41.200 407.244,41.380 406.800,41.600 406.800 C 41.820 406.800,42.000 406.260,42.000 405.600 C 42.000 404.940,42.180 404.400,42.400 404.400 C 42.620 404.400,42.800 403.986,42.800 403.480 C 42.800 402.974,42.967 402.389,43.171 402.180 C 43.375 401.971,43.616 401.260,43.706 400.600 C 43.797 399.940,44.080 398.893,44.336 398.274 C 44.591 397.655,44.800 396.980,44.800 396.774 C 44.800 396.568,44.980 396.400,45.200 396.400 C 45.420 396.400,45.600 396.038,45.600 395.595 C 45.600 394.787,45.693 394.540,46.932 392.068 C 47.300 391.335,47.600 390.210,47.600 389.568 C 47.600 388.925,47.780 388.400,48.000 388.400 C 48.220 388.400,48.400 387.950,48.400 387.400 C 48.400 386.850,48.552 386.400,48.737 386.400 C 48.922 386.400,49.403 385.311,49.806 383.981 C 50.209 382.650,50.687 381.470,50.869 381.357 C 51.051 381.245,51.200 380.809,51.200 380.388 C 51.200 379.967,51.650 378.605,52.200 377.362 C 52.750 376.118,53.200 374.683,53.200 374.174 C 53.200 373.664,53.380 373.136,53.600 373.000 C 53.820 372.864,54.000 372.313,54.000 371.776 C 54.000 371.239,54.180 370.800,54.400 370.800 C 54.620 370.800,54.800 370.080,54.800 369.200 C 54.800 368.320,54.947 367.600,55.126 367.600 C 55.618 367.600,56.800 364.908,56.800 363.786 C 56.800 363.244,56.980 362.800,57.200 362.800 C 57.420 362.800,57.600 362.476,57.600 362.080 C 57.600 361.684,57.779 361.181,57.998 360.962 C 58.217 360.743,58.445 360.032,58.505 359.382 C 58.565 358.732,59.196 357.070,59.907 355.688 C 60.854 353.848,61.200 352.644,61.200 351.188 C 61.200 350.095,61.380 349.200,61.600 349.200 C 61.820 349.200,62.000 348.952,62.000 348.649 C 62.000 348.346,62.270 347.874,62.600 347.600 C 62.930 347.326,63.200 346.674,63.200 346.151 C 63.200 345.628,63.380 345.200,63.600 345.200 C 63.820 345.200,64.000 344.798,64.000 344.306 C 64.000 343.815,64.437 342.510,64.972 341.406 C 65.986 339.312,66.933 336.407,66.933 335.392 C 66.933 335.066,67.083 334.800,67.267 334.800 C 67.450 334.800,67.600 334.545,67.600 334.232 C 67.600 333.920,67.853 333.155,68.163 332.532 C 68.473 331.910,68.901 330.950,69.115 330.400 C 69.329 329.850,69.785 328.680,70.128 327.800 C 70.471 326.920,70.968 325.480,71.233 324.600 C 71.498 323.720,71.982 322.280,72.309 321.400 C 72.635 320.520,73.047 319.260,73.224 318.600 C 73.752 316.629,74.559 314.627,75.252 313.569 C 75.611 313.022,76.210 311.500,76.583 310.187 C 76.957 308.874,77.444 307.170,77.666 306.400 C 78.113 304.848,80.670 298.195,81.238 297.105 C 81.437 296.723,81.600 295.969,81.600 295.429 C 81.600 294.889,81.773 294.340,81.984 294.210 C 82.195 294.079,82.670 292.944,83.040 291.686 C 83.410 290.429,84.053 288.626,84.468 287.679 C 84.884 286.733,85.497 285.113,85.832 284.079 C 86.515 281.970,87.012 280.726,87.837 279.068 C 88.147 278.445,88.400 277.522,88.400 277.016 C 88.400 275.671,89.376 273.559,90.614 272.223 C 91.504 271.262,91.730 270.584,91.878 268.427 C 91.977 266.982,92.382 265.163,92.779 264.384 C 93.175 263.605,93.625 262.396,93.779 261.697 C 93.932 260.998,94.496 259.780,95.033 258.990 C 96.820 256.356,97.600 254.448,97.600 252.709 C 97.600 251.530,97.916 250.521,98.600 249.514 C 99.150 248.705,99.600 247.670,99.600 247.215 C 99.600 246.489,101.609 244.806,102.481 244.801 C 102.983 244.799,104.095 247.575,103.849 248.216 C 103.718 248.558,103.068 249.027,102.405 249.258 C 101.101 249.713,101.091 249.739,101.199 252.389 C 101.273 254.207,102.202 256.570,102.717 256.251 C 102.873 256.155,102.943 310.444,102.874 376.893 C 102.740 504.368,102.822 498.800,101.091 498.800 C 100.779 498.800,100.198 499.160,99.800 499.600 C 99.097 500.376,99.101 500.400,99.938 500.400 C 100.656 500.400,100.800 500.633,100.800 501.800 C 100.800 503.045,100.916 503.200,101.853 503.200 C 102.847 503.200,102.894 503.112,102.695 501.630 C 102.521 500.332,102.650 499.904,103.442 499.160 C 103.969 498.666,104.400 498.455,104.400 498.693 C 104.400 498.931,104.760 499.031,105.200 498.916 C 105.940 498.722,106.000 498.904,106.000 501.353 L 106.000 504.000 107.227 504.000 C 110.006 504.000,108.628 506.187,105.794 506.275 C 104.470 506.317,102.850 506.630,102.194 506.973 C 101.463 507.354,99.963 507.596,98.324 507.598 C 96.852 507.599,95.536 507.780,95.400 508.000 C 95.264 508.220,93.767 508.400,92.074 508.400 C 90.380 508.400,88.425 508.563,87.729 508.763 C 87.032 508.963,81.815 509.246,76.136 509.392 C 65.308 509.670,62.585 509.953,69.633 510.067 C 71.925 510.105,74.700 510.155,75.800 510.179 C 76.900 510.203,81.850 510.303,86.800 510.400 L 95.800 510.577 86.600 510.828 C 81.540 510.966,108.141 511.045,145.714 511.005 C 197.063 510.950,214.144 510.816,214.494 510.466 C 214.833 510.127,219.654 509.991,232.180 509.966 C 242.511 509.945,248.939 509.793,248.248 509.586 C 247.614 509.396,238.434 509.232,227.848 509.221 C 217.261 509.209,206.350 509.112,203.600 509.005 C 200.850 508.898,185.738 508.709,170.018 508.586 C 154.298 508.463,141.248 508.208,141.018 508.019 C 140.788 507.831,140.150 507.607,139.600 507.523 C 138.487 507.352,143.742 506.428,147.145 506.197 C 149.792 506.017,150.400 505.796,150.400 505.013 C 150.400 504.407,148.659 504.175,145.400 504.347 C 143.353 504.455,141.763 502.405,143.199 501.508 C 144.310 500.814,144.486 164.061,143.377 161.406 C 143.034 160.586,142.784 159.529,142.821 159.058 C 142.990 156.908,142.763 154.400,142.400 154.400 C 142.180 154.400,142.000 155.156,142.000 156.080 C 142.000 157.268,141.875 157.635,141.574 157.334 C 141.073 156.833,141.236 153.536,141.754 153.693 C 141.949 153.752,142.258 153.395,142.441 152.900 C 142.624 152.405,143.050 152.000,143.387 152.000 C 144.346 152.000,144.177 149.409,143.140 148.217 C 142.667 147.673,142.141 147.313,141.971 147.418 C 141.450 147.740,140.477 145.363,140.854 144.689 C 141.043 144.352,141.238 142.620,141.288 140.839 C 141.339 139.057,141.519 137.578,141.690 137.550 C 141.860 137.523,142.225 137.478,142.500 137.450 C 142.775 137.422,143.058 136.992,143.129 136.494 C 143.199 135.996,143.424 135.691,143.629 135.818 C 143.833 135.944,144.000 135.846,144.000 135.600 C 144.000 135.354,144.154 135.248,144.342 135.364 C 144.530 135.480,144.794 134.145,144.928 132.397 C 145.368 126.696,142.504 124.555,141.721 130.000 C 141.487 131.630,140.736 133.208,140.318 132.949 C 139.823 132.644,140.274 130.087,141.030 128.914 C 141.343 128.427,141.600 127.651,141.600 127.190 C 141.600 126.730,141.767 126.456,141.971 126.582 C 142.395 126.844,142.962 125.385,142.639 124.863 C 142.522 124.673,142.780 123.824,143.213 122.975 C 143.646 122.126,144.000 121.199,144.000 120.915 C 144.000 120.632,144.159 120.400,144.354 120.400 C 144.837 120.400,146.000 122.228,146.000 122.986 C 146.000 123.324,146.181 123.600,146.403 123.600 C 146.625 123.600,146.782 122.835,146.752 121.900 C 146.722 120.965,146.878 119.649,147.099 118.976 C 147.514 117.711,146.567 115.509,146.121 116.700 C 145.773 117.627,145.200 117.209,145.200 116.028 C 145.200 115.121,145.402 114.827,146.089 114.728 C 146.797 114.626,146.993 114.316,147.047 113.210 C 147.199 110.128,148.075 107.570,148.891 107.829 C 149.558 108.041,149.591 107.975,149.162 107.288 C 148.626 106.429,148.954 105.001,149.597 105.398 C 149.842 105.550,150.000 105.010,150.000 104.017 C 150.000 102.232,150.817 99.200,151.297 99.200 C 151.464 99.200,151.600 98.882,151.600 98.494 C 151.600 98.106,151.975 96.801,152.434 95.594 C 152.892 94.387,153.583 92.544,153.968 91.499 C 154.354 90.453,154.789 89.478,154.935 89.332 C 155.081 89.186,155.200 88.644,155.200 88.128 C 155.200 87.612,155.380 86.832,155.600 86.395 C 156.571 84.466,156.714 84.103,156.980 82.891 C 157.135 82.186,157.428 81.506,157.631 81.381 C 157.834 81.255,158.000 80.801,158.000 80.371 C 158.000 79.941,158.177 79.277,158.394 78.895 C 158.611 78.513,159.577 75.860,160.540 73.000 C 162.826 66.215,163.629 63.953,164.053 63.105 C 164.244 62.723,164.400 61.994,164.400 61.485 C 164.400 60.976,164.544 60.389,164.719 60.180 C 164.895 59.971,165.360 58.810,165.753 57.600 C 166.146 56.390,166.618 55.040,166.802 54.600 C 166.986 54.160,167.404 52.990,167.730 52.000 C 169.086 47.894,170.863 42.954,171.219 42.305 C 171.429 41.923,171.600 41.292,171.600 40.901 C 171.600 40.511,172.022 39.736,172.539 39.179 C 173.055 38.622,173.550 37.971,173.639 37.732 C 174.841 34.486,181.029 31.371,188.200 30.400 C 189.740 30.192,192.890 29.736,195.200 29.387 C 200.327 28.613,203.439 28.195,208.400 27.615 C 210.490 27.371,212.650 27.011,213.200 26.816 C 213.750 26.621,215.460 26.343,217.000 26.198 C 219.749 25.939,222.633 25.573,227.400 24.878 C 228.720 24.685,231.690 24.302,234.000 24.025 C 236.310 23.749,238.513 23.360,238.895 23.161 C 239.277 22.963,240.659 22.800,241.966 22.800 C 243.411 22.800,244.552 22.591,244.875 22.268 C 245.168 21.975,245.644 21.815,245.934 21.911 C 247.370 22.390,251.600 21.536,251.600 20.768 C 251.600 20.181,251.317 20.000,250.400 20.000 C 249.740 20.000,249.200 20.180,249.200 20.400 M399.701 98.600 C 399.705 99.480,399.787 99.793,399.883 99.295 C 399.979 98.798,399.975 98.078,399.875 97.695 C 399.775 97.313,399.696 97.720,399.701 98.600 M399.462 108.864 C 399.078 117.747,399.197 179.661,399.600 180.600 C 399.795 181.054,399.956 164.397,399.972 142.100 C 399.987 120.485,399.938 102.800,399.862 102.800 C 399.787 102.800,399.607 105.529,399.462 108.864 M149.777 115.238 C 149.628 115.478,149.077 115.593,148.553 115.493 C 147.783 115.346,147.600 115.480,147.600 116.191 C 147.600 116.919,147.840 117.079,149.000 117.123 C 150.298 117.172,150.400 117.089,150.400 115.988 C 150.400 114.733,150.222 114.518,149.777 115.238 M145.700 138.683 C 145.425 139.275,145.200 140.184,145.200 140.703 C 145.200 142.178,144.346 145.200,143.929 145.200 C 143.722 145.200,143.671 145.392,143.816 145.627 C 143.961 145.861,143.747 146.299,143.340 146.598 C 142.681 147.084,142.789 147.130,144.335 147.017 C 146.631 146.849,146.711 146.720,146.816 143.000 C 146.977 137.346,146.742 136.439,145.700 138.683 M138.369 139.659 C 137.831 140.663,137.554 140.461,137.861 139.287 C 137.988 138.804,138.251 138.508,138.447 138.629 C 138.647 138.752,138.613 139.203,138.369 139.659 M142.000 332.031 C 142.005 531.952,142.071 503.929,141.601 503.200 C 140.830 502.004,141.093 160.560,141.864 161.331 C 141.936 161.403,141.997 238.218,142.000 332.031 M112.148 217.700 C 112.788 220.088,111.911 221.448,110.638 220.042 C 109.829 219.148,109.826 218.231,110.629 217.429 C 111.486 216.571,111.863 216.639,112.148 217.700 M108.643 231.900 C 109.963 233.638,108.069 236.043,106.700 234.368 C 105.799 233.265,105.818 232.941,106.800 232.684 C 107.240 232.569,107.600 232.188,107.600 231.837 C 107.600 231.006,107.982 231.029,108.643 231.900 M98.639 260.907 C 97.589 264.886,97.251 268.718,97.895 269.362 C 98.057 269.524,98.192 269.943,98.195 270.294 C 98.198 270.644,98.450 271.015,98.756 271.118 C 99.180 271.260,99.249 271.048,99.045 270.235 C 98.872 269.547,98.972 268.971,99.327 268.616 C 99.905 268.038,100.554 262.468,100.163 261.447 C 99.862 260.664,98.803 260.288,98.639 260.907 M37.200 415.172 C 37.200 415.853,37.033 416.723,36.829 417.105 C 36.625 417.487,36.356 418.070,36.232 418.400 C 36.107 418.730,35.845 419.270,35.649 419.600 C 34.690 421.215,34.313 422.434,34.489 423.351 C 34.605 423.959,34.506 424.329,34.241 424.280 C 33.998 424.236,33.739 424.739,33.664 425.399 C 33.589 426.058,33.327 426.722,33.080 426.874 C 32.834 427.026,32.611 427.746,32.585 428.475 C 32.556 429.257,32.344 429.759,32.068 429.700 C 31.811 429.645,31.645 429.735,31.700 429.900 C 31.877 430.432,30.667 434.400,30.328 434.400 C 30.147 434.400,30.000 434.921,30.000 435.557 C 30.000 436.194,29.752 436.809,29.450 436.925 C 29.148 437.042,28.900 437.638,28.900 438.252 C 28.900 438.865,28.698 439.434,28.450 439.517 C 28.203 439.599,28.000 440.382,28.000 441.257 C 28.000 442.215,27.841 442.749,27.600 442.600 C 27.362 442.453,27.200 442.933,27.200 443.789 C 27.200 444.639,26.975 445.311,26.650 445.436 C 26.348 445.552,26.100 446.107,26.100 446.669 C 26.100 447.231,25.882 447.826,25.616 447.990 C 25.350 448.155,25.180 448.359,25.239 448.445 C 25.297 448.530,25.204 449.050,25.032 449.600 C 24.860 450.150,24.642 450.956,24.548 451.391 C 24.454 451.827,24.202 452.358,23.989 452.571 C 23.775 452.785,23.600 453.352,23.600 453.831 C 23.600 454.310,23.328 454.928,22.995 455.204 C 22.662 455.481,22.413 455.908,22.442 456.153 C 22.572 457.255,22.372 458.430,22.085 458.252 C 21.712 458.022,21.498 459.911,21.835 460.457 C 22.250 461.127,23.648 457.853,23.507 456.545 C 23.410 455.649,23.518 455.347,23.886 455.488 C 24.202 455.609,24.400 455.370,24.400 454.866 C 24.400 454.416,24.564 453.946,24.765 453.822 C 24.966 453.697,25.252 452.877,25.400 451.998 C 25.549 451.119,25.834 450.400,26.035 450.400 C 26.236 450.400,26.400 450.051,26.400 449.624 C 26.400 449.197,26.580 448.736,26.800 448.600 C 27.020 448.464,27.200 447.850,27.200 447.236 C 27.200 446.622,27.650 445.273,28.200 444.238 C 28.750 443.204,29.200 441.953,29.200 441.459 C 29.200 440.964,29.349 440.389,29.530 440.180 C 29.712 439.971,30.105 438.990,30.404 438.000 C 30.703 437.010,31.364 435.311,31.873 434.225 C 32.383 433.139,32.800 431.839,32.800 431.337 C 32.800 430.835,33.149 429.802,33.576 429.042 C 34.003 428.282,34.474 427.015,34.622 426.226 C 34.770 425.437,35.050 424.693,35.245 424.572 C 35.440 424.451,35.600 423.823,35.600 423.176 C 35.600 422.529,35.780 422.000,36.000 422.000 C 36.220 422.000,36.400 421.460,36.400 420.800 C 36.400 420.140,36.556 419.600,36.746 419.600 C 37.257 419.600,38.479 416.160,38.329 415.142 C 38.120 413.721,37.200 413.746,37.200 415.172 M20.800 462.167 C 20.800 462.918,20.589 463.604,20.331 463.690 C 19.672 463.909,19.614 465.600,20.267 465.600 C 20.560 465.600,20.800 465.251,20.800 464.824 C 20.800 464.397,20.980 463.936,21.200 463.800 C 21.420 463.664,21.600 462.933,21.600 462.176 C 21.600 461.419,21.420 460.800,21.200 460.800 C 20.980 460.800,20.800 461.415,20.800 462.167 M18.629 467.661 C 18.283 468.355,18.000 469.345,18.000 469.861 C 18.000 470.378,17.809 470.800,17.576 470.800 C 17.343 470.800,17.256 470.968,17.383 471.172 C 17.509 471.377,17.418 471.665,17.179 471.813 C 16.941 471.960,16.845 472.340,16.966 472.656 C 17.087 472.972,16.948 473.322,16.657 473.433 C 15.970 473.697,15.826 476.524,16.511 476.299 C 16.780 476.211,17.057 475.657,17.127 475.069 C 17.196 474.481,17.421 474.000,17.627 474.000 C 17.832 474.000,18.000 473.370,18.000 472.600 C 18.000 471.830,18.180 471.200,18.400 471.200 C 18.620 471.200,18.800 470.654,18.800 469.987 C 18.800 469.279,19.049 468.679,19.400 468.545 C 20.044 468.298,20.247 466.400,19.629 466.400 C 19.425 466.400,18.975 466.968,18.629 467.661 M15.200 477.576 C 15.200 478.223,15.361 478.852,15.557 478.974 C 15.981 479.236,16.529 477.333,16.189 476.782 C 15.715 476.015,15.200 476.430,15.200 477.576 M14.415 480.161 C 14.214 480.690,13.846 481.248,13.597 481.402 C 13.349 481.555,13.235 481.915,13.345 482.202 C 13.455 482.488,13.293 483.055,12.985 483.461 C 12.677 483.868,12.420 484.695,12.413 485.300 C 12.406 485.905,12.240 486.400,12.043 486.400 C 11.847 486.400,11.676 488.800,11.663 491.733 C 11.645 495.631,11.768 497.067,12.119 497.067 C 12.472 497.067,12.580 495.746,12.525 492.122 C 12.452 487.243,12.947 484.667,14.097 483.944 C 14.321 483.804,14.422 483.129,14.321 482.444 C 14.195 481.585,14.303 481.200,14.669 481.200 C 14.969 481.200,15.200 480.764,15.200 480.200 C 15.200 478.937,14.886 478.922,14.415 480.161 M12.400 497.866 C 12.400 498.462,13.777 501.200,14.077 501.200 C 14.255 501.200,14.400 501.571,14.400 502.024 C 14.400 502.477,14.580 502.736,14.800 502.600 C 15.020 502.464,15.200 502.633,15.200 502.976 C 15.200 503.319,15.380 503.600,15.600 503.600 C 15.820 503.600,16.000 503.870,16.000 504.200 C 16.000 504.530,16.237 504.800,16.526 504.800 C 16.816 504.800,17.627 505.449,18.329 506.242 C 19.120 507.135,19.833 507.596,20.203 507.454 C 21.072 507.121,20.934 506.400,20.000 506.400 C 19.560 506.400,19.200 506.220,19.200 506.000 C 19.200 505.780,18.930 505.600,18.600 505.600 C 18.270 505.600,18.000 505.330,18.000 505.000 C 18.000 504.670,17.865 504.396,17.700 504.391 C 17.535 504.386,16.860 503.577,16.200 502.592 C 15.540 501.607,14.865 500.801,14.700 500.801 C 14.535 500.800,14.394 500.485,14.387 500.100 C 14.367 499.071,12.400 496.859,12.400 497.866 M110.000 505.200 C 110.000 505.640,109.820 506.000,109.600 506.000 C 109.380 506.000,109.200 505.640,109.200 505.200 C 109.200 504.760,109.380 504.400,109.600 504.400 C 109.820 504.400,110.000 504.760,110.000 505.200 M111.680 505.680 C 111.307 506.053,111.200 505.947,111.200 505.200 C 111.200 504.453,111.307 504.347,111.680 504.720 C 112.053 505.093,112.053 505.307,111.680 505.680 M20.800 507.700 C 20.800 508.012,21.075 508.267,21.411 508.267 C 22.103 508.267,22.000 507.533,21.275 507.292 C 21.014 507.205,20.800 507.388,20.800 507.700 M22.681 508.841 C 22.998 509.158,23.332 509.161,23.861 508.854 C 24.509 508.477,24.454 508.423,23.420 508.412 C 22.559 508.403,22.360 508.520,22.681 508.841 M24.640 509.535 C 24.526 509.719,25.506 509.909,26.817 509.956 C 28.272 510.008,29.200 509.878,29.200 509.621 C 29.200 509.121,24.946 509.041,24.640 509.535 M398.243 509.833 C 397.903 510.719,397.928 510.800,398.553 510.800 C 398.858 510.800,399.201 510.440,399.316 510.000 C 399.567 509.038,398.605 508.888,398.243 509.833 M53.400 510.400 C 53.536 510.620,55.267 510.800,57.247 510.800 C 59.545 510.800,60.758 510.655,60.600 510.400 C 60.464 510.180,58.733 510.000,56.753 510.000 C 54.455 510.000,53.242 510.145,53.400 510.400 M73.700 511.076 C 74.085 511.176,74.715 511.176,75.100 511.076 C 75.485 510.975,75.170 510.893,74.400 510.893 C 73.630 510.893,73.315 510.975,73.700 511.076  M -25 0 L -5 0 L -5 20 L -25 20 Z M 405 0 L 425 0 L 425 20 L 405 20 Z" stroke="none" fill="#8ba2e2" fill-rule="evenodd" transform="translate(490,584)"></path></g></svg>