<svg width="45" height="45" viewBox="0 0 45 45" fill="none" xmlns="http://www.w3.org/2000/svg">
<path d="M6.81938 6.43893L23.2069 22.5096L6.94125 38.7283C6.67581 38.3813 6.4693 37.993 6.33 37.5789C6.25686 37.1099 6.25686 36.6323 6.33 36.1633V8.5633C6.28125 7.82268 6.45188 7.08205 6.8175 6.43893M30.2663 15.5008L24.9169 20.7996L8.72438 4.87518C9.24938 4.6933 9.81188 4.64268 10.3613 4.72893C11.2238 4.96518 12.0469 5.32893 12.8025 5.8033L27.4575 13.9127C28.41 14.4246 29.3381 14.9627 30.2663 15.5008ZM24.9188 24.2439L30.2419 29.4714L26.3831 31.6202L14.61 38.1639C13.635 38.702 12.6563 39.2158 11.7038 39.8027C11.2963 40.0566 10.8392 40.2206 10.3633 40.2837C9.88727 40.3468 9.40331 40.3074 8.94375 40.1683L24.9188 24.2439ZM38.7188 22.5096C38.7335 23.1654 38.5682 23.8127 38.241 24.3813C37.9137 24.9498 37.437 25.4179 36.8625 25.7346L32.4638 28.1758L26.6756 22.5096L32.4881 16.7458C33.9788 17.5764 35.445 18.4071 36.9094 19.1889C37.4937 19.515 37.9736 20 38.2935 20.5877C38.6135 21.1755 38.7621 21.8418 38.7188 22.5096Z" fill="black"/>
</svg>
