<svg width="100" height="100" viewBox="0 0 100 100" fill="none" xmlns="http://www.w3.org/2000/svg">
<circle cx="50" cy="50" r="47" fill="#6165F3" stroke="white" stroke-width="6"/>
<path fill-rule="evenodd" clip-rule="evenodd" d="M43.481 40.9606C43.481 40.3726 43.9575 39.8961 44.5454 39.8961L58.5963 39.896C58.8786 39.8959 59.1494 40.0081 59.349 40.2078C59.5486 40.4074 59.6608 40.6782 59.6608 40.9606V55.0115C59.6608 55.5994 59.1843 56.076 58.5964 56.076C58.0085 56.076 57.5318 55.5993 57.5318 55.0114L57.5317 43.5305L41.2835 59.7787C40.8678 60.1944 40.1938 60.1944 39.7781 59.7787C39.3624 59.363 39.3624 58.689 39.7781 58.2732L56.0263 42.0251L44.5455 42.0251C43.9576 42.0251 43.481 41.5485 43.481 40.9606Z" fill="white"/>
</svg>
