<svg width="223" height="24" viewBox="0 0 223 24" fill="none" xmlns="http://www.w3.org/2000/svg">
<path d="M23.0525 7.0131C23.0682 7.23243 23.0682 7.45182 23.0682 7.67115C23.0682 14.3612 17.9762 22.0697 8.6696 22.0697C5.8024 22.0697 3.13892 21.2393 0.898438 19.7979C1.30581 19.8449 1.69746 19.8606 2.12051 19.8606C4.48629 19.8606 6.66412 19.0616 8.40324 17.6985C6.17843 17.6515 4.31397 16.1944 3.67159 14.1889C3.98497 14.2359 4.2983 14.2672 4.62735 14.2672C5.0817 14.2672 5.53609 14.2045 5.95909 14.0949C3.64029 13.6248 1.90113 11.5881 1.90113 9.12824V9.06559C2.57481 9.44162 3.35826 9.67663 4.18858 9.70793C2.82549 8.79919 1.93247 7.24811 1.93247 5.49332C1.93247 4.55328 2.18311 3.69156 2.62183 2.9395C5.113 6.01036 8.85759 8.01579 13.0565 8.23517C12.9782 7.85915 12.9311 7.46749 12.9311 7.07579C12.9311 4.28692 15.1873 2.01514 17.9918 2.01514C19.4489 2.01514 20.7649 2.62617 21.6894 3.61324C22.8331 3.3939 23.9298 2.97085 24.9012 2.39116C24.5252 3.56626 23.7261 4.55333 22.6764 5.17999C23.6948 5.07037 24.6819 4.78829 25.5906 4.39664C24.9013 5.39932 24.0396 6.29235 23.0525 7.0131V7.0131Z" fill="white"/>
<path d="M76.5318 12.1156C76.5318 5.50848 71.1786 0.155273 64.5715 0.155273C57.9644 0.155273 52.6112 5.50848 52.6112 12.1156C52.6112 18.0851 56.9849 23.0332 62.7027 23.9312V15.573H59.6644V12.1156H62.7027V9.48045C62.7027 6.48314 64.4871 4.82751 67.2201 4.82751C68.529 4.82751 69.8977 5.06093 69.8977 5.06093V8.00278H68.3892C66.9038 8.00278 66.4403 8.92488 66.4403 9.87061V12.1156H69.7574L69.2269 15.573H66.4403V23.9312C72.1581 23.0332 76.5318 18.0851 76.5318 12.1156Z" fill="white"/>
<path d="M121.625 1.23975H103.101C102.253 1.23975 101.563 1.93904 101.563 2.79748V21.2877C101.563 22.1462 102.253 22.8455 103.101 22.8455H121.625C122.474 22.8455 123.169 22.1462 123.169 21.2877V2.79748C123.169 1.93904 122.474 1.23975 121.625 1.23975ZM108.093 19.7589H104.891V9.44799H108.098V19.7589H108.093ZM106.492 8.03976C105.465 8.03976 104.635 7.20543 104.635 6.18302C104.635 5.1606 105.465 4.32628 106.492 4.32628C107.514 4.32628 108.349 5.1606 108.349 6.18302C108.349 7.21025 107.519 8.03976 106.492 8.03976ZM120.097 19.7589H116.894V14.7433C116.894 13.5473 116.87 12.0088 115.231 12.0088C113.562 12.0088 113.306 13.311 113.306 14.6565V19.7589H110.104V9.44799H113.176V10.8562H113.219C113.649 10.046 114.695 9.19239 116.253 9.19239C119.494 9.19239 120.097 11.3288 120.097 14.1067V19.7589Z" fill="white"/>
<path d="M175.798 5.68034C175.496 4.53977 174.603 3.64149 173.47 3.33665C171.416 2.78271 163.18 2.78271 163.18 2.78271C163.18 2.78271 154.943 2.78271 152.889 3.33665C151.756 3.64154 150.864 4.53977 150.561 5.68034C150.01 7.74769 150.01 12.061 150.01 12.061C150.01 12.061 150.01 16.3743 150.561 18.4417C150.864 19.5823 151.756 20.4431 152.889 20.748C154.943 21.3019 163.18 21.3019 163.18 21.3019C163.18 21.3019 171.416 21.3019 173.47 20.748C174.603 20.4431 175.496 19.5823 175.798 18.4417C176.349 16.3744 176.349 12.061 176.349 12.061C176.349 12.061 176.349 7.74769 175.798 5.68034V5.68034ZM160.486 15.9772V8.14484L167.37 12.0611L160.486 15.9772V15.9772Z" fill="white"/>
<path d="M212.193 6.50005C209.126 6.50005 206.652 8.9741 206.652 12.0413C206.652 15.1086 209.126 17.5826 212.193 17.5826C215.261 17.5826 217.735 15.1086 217.735 12.0413C217.735 8.9741 215.261 6.50005 212.193 6.50005ZM212.193 15.6439C210.211 15.6439 208.591 14.0283 208.591 12.0413C208.591 10.0544 210.206 8.43878 212.193 8.43878C214.18 8.43878 215.796 10.0544 215.796 12.0413C215.796 14.0283 214.175 15.6439 212.193 15.6439ZM219.254 6.27338C219.254 6.99197 218.675 7.56587 217.961 7.56587C217.243 7.56587 216.669 6.98714 216.669 6.27338C216.669 5.55962 217.248 4.9809 217.961 4.9809C218.675 4.9809 219.254 5.55962 219.254 6.27338ZM222.924 7.58516C222.842 5.85381 222.446 4.32019 221.178 3.05664C219.914 1.79309 218.381 1.39763 216.649 1.31082C214.865 1.20954 209.517 1.20954 207.732 1.31082C206.006 1.39281 204.472 1.78827 203.204 3.05182C201.935 4.31537 201.545 5.84899 201.458 7.58034C201.357 9.36474 201.357 14.7131 201.458 16.4975C201.54 18.2289 201.935 19.7625 203.204 21.026C204.472 22.2896 206.001 22.685 207.732 22.7719C209.517 22.8731 214.865 22.8731 216.649 22.7719C218.381 22.6899 219.914 22.2944 221.178 21.026C222.442 19.7625 222.837 18.2289 222.924 16.4975C223.025 14.7131 223.025 9.36956 222.924 7.58516ZM220.619 18.4121C220.242 19.3574 219.514 20.0856 218.564 20.4666C217.141 21.0309 213.766 20.9006 212.193 20.9006C210.621 20.9006 207.24 21.026 205.823 20.4666C204.877 20.0904 204.149 19.3622 203.768 18.4121C203.204 16.9894 203.334 13.6135 203.334 12.0413C203.334 10.4691 203.209 7.08842 203.768 5.67055C204.144 4.7253 204.872 3.99707 205.823 3.61607C207.245 3.05182 210.621 3.18203 212.193 3.18203C213.766 3.18203 217.146 3.05664 218.564 3.61607C219.509 3.99224 220.238 4.72047 220.619 5.67055C221.183 7.09324 221.053 10.4691 221.053 12.0413C221.053 13.6135 221.183 16.9943 220.619 18.4121Z" fill="white"/>
</svg>
