<svg width="273" height="30" viewBox="0 0 273 30" fill="none" xmlns="http://www.w3.org/2000/svg">
<path d="M27.1751 8.41196C27.1944 8.68101 27.1944 8.95012 27.1944 9.21917C27.1944 17.4255 20.9483 26.8811 9.53244 26.8811C6.01542 26.8811 2.74827 25.8624 0 24.0944C0.499702 24.152 0.980119 24.1713 1.49905 24.1713C4.40101 24.1713 7.07244 23.1911 9.20572 21.5191C6.47667 21.4614 4.18964 19.6741 3.40167 17.2141C3.78607 17.2717 4.17042 17.3102 4.57405 17.3102C5.13137 17.3102 5.68875 17.2333 6.20762 17.0988C3.36327 16.5222 1.22994 14.0238 1.22994 11.0065V10.9296C2.05631 11.3909 3.01732 11.6792 4.03583 11.7176C2.36381 10.6029 1.26839 8.70024 1.26839 6.54774C1.26839 5.39464 1.57583 4.33762 2.11399 3.41512C5.16976 7.18197 9.76304 9.64191 14.9136 9.91101C14.8175 9.44976 14.7598 8.96935 14.7598 8.48887C14.7598 5.06792 17.5273 2.28125 20.9674 2.28125C22.7548 2.28125 24.3691 3.03077 25.503 4.24155C26.906 3.9725 28.2513 3.45357 29.4429 2.7425C28.9816 4.18393 28.0014 5.3947 26.7138 6.16339C27.963 6.02893 29.1738 5.68292 30.2885 5.2025C29.443 6.43244 28.3859 7.52786 27.1751 8.41197V8.41196Z" fill="white"/>
<path d="M92.7752 14.671C92.7752 6.56647 86.2087 0 78.1041 0C69.9996 0 63.4331 6.56647 63.4331 14.671C63.4331 21.9935 68.7981 28.0631 75.8118 29.1646V18.912H72.0849V14.671H75.8118V11.4387C75.8118 7.76204 78.0006 5.73117 81.3531 5.73117C82.9586 5.73117 84.6375 6.01749 84.6375 6.01749V9.62609H82.787C80.965 9.62609 80.3965 10.7572 80.3965 11.9173V14.671H84.4653L83.8146 18.912H80.3965V29.1646C87.4102 28.0631 92.7752 21.9935 92.7752 14.671Z" fill="white"/>
<path d="M148.089 1.33008H125.367C124.325 1.33008 123.479 2.18786 123.479 3.24086V25.9218C123.479 26.9748 124.325 27.8326 125.367 27.8326H148.089C149.13 27.8326 149.982 26.9748 149.982 25.9218V3.24086C149.982 2.18786 149.13 1.33008 148.089 1.33008ZM131.489 24.0465H127.561V11.3987H131.495V24.0465H131.489ZM129.525 9.67127C128.265 9.67127 127.248 8.64785 127.248 7.39371C127.248 6.13957 128.265 5.11615 129.525 5.11615C130.78 5.11615 131.803 6.13957 131.803 7.39371C131.803 8.65376 130.785 9.67127 129.525 9.67127ZM146.214 24.0465H142.286V17.8941C142.286 16.427 142.256 14.5399 140.245 14.5399C138.198 14.5399 137.884 16.1372 137.884 17.7877V24.0465H133.956V11.3987H137.725V13.1261H137.778C138.304 12.1322 139.588 11.0851 141.499 11.0851C145.474 11.0851 146.214 13.7058 146.214 17.1133V24.0465Z" fill="white"/>
<path d="M214.54 6.77701C214.168 5.37794 213.074 4.27607 211.684 3.90214C209.164 3.22266 199.061 3.22266 199.061 3.22266C199.061 3.22266 188.958 3.22266 186.439 3.90214C185.049 4.27613 183.954 5.37794 183.582 6.77701C182.907 9.31291 182.907 14.6038 182.907 14.6038C182.907 14.6038 182.907 19.8947 183.582 22.4306C183.954 23.8297 185.049 24.8857 186.439 25.2596C188.958 25.9391 199.061 25.9391 199.061 25.9391C199.061 25.9391 209.164 25.9391 211.684 25.2596C213.074 24.8857 214.168 23.8297 214.54 22.4306C215.215 19.8947 215.215 14.6038 215.215 14.6038C215.215 14.6038 215.215 9.31291 214.54 6.77701V6.77701ZM195.757 19.4076V9.80007L204.201 14.6039L195.757 19.4076V19.4076Z" fill="white"/>
<path d="M259.183 7.78273C255.421 7.78273 252.386 10.8175 252.386 14.5799C252.386 18.3423 255.421 21.3771 259.183 21.3771C262.946 21.3771 265.981 18.3423 265.981 14.5799C265.981 10.8175 262.946 7.78273 259.183 7.78273ZM259.183 18.999C256.752 18.999 254.764 17.0172 254.764 14.5799C254.764 12.1426 256.746 10.1609 259.183 10.1609C261.621 10.1609 263.603 12.1426 263.603 14.5799C263.603 17.0172 261.615 18.999 259.183 18.999ZM267.844 7.50469C267.844 8.38613 267.134 9.0901 266.259 9.0901C265.377 9.0901 264.673 8.38022 264.673 7.50469C264.673 6.62916 265.383 5.91927 266.259 5.91927C267.134 5.91927 267.844 6.62916 267.844 7.50469ZM272.346 9.11377C272.245 6.99002 271.76 5.10881 270.205 3.55889C268.655 2.00897 266.773 1.52387 264.65 1.41739C262.461 1.29316 255.9 1.29316 253.711 1.41739C251.594 1.51796 249.712 2.00305 248.157 3.55297C246.601 5.1029 246.122 6.9841 246.015 9.10785C245.891 11.2967 245.891 17.8572 246.015 20.0461C246.116 22.1698 246.601 24.051 248.157 25.6009C249.712 27.1509 251.588 27.6359 253.711 27.7424C255.9 27.8667 262.461 27.8667 264.65 27.7424C266.773 27.6419 268.655 27.1568 270.205 25.6009C271.754 24.051 272.24 22.1698 272.346 20.0461C272.47 17.8572 272.47 11.3026 272.346 9.11377ZM269.518 22.3946C269.057 23.5541 268.164 24.4474 266.998 24.9147C265.253 25.6068 261.112 25.4471 259.183 25.4471C257.255 25.4471 253.108 25.6009 251.369 24.9147C250.209 24.4533 249.316 23.56 248.849 22.3946C248.157 20.6495 248.316 16.5084 248.316 14.5799C248.316 12.6514 248.162 8.50445 248.849 6.76522C249.31 5.60573 250.203 4.71246 251.369 4.24511C253.114 3.55297 257.255 3.7127 259.183 3.7127C261.112 3.7127 265.259 3.55889 266.998 4.24511C268.158 4.70654 269.051 5.59982 269.518 6.76522C270.21 8.51036 270.051 12.6514 270.051 14.5799C270.051 16.5084 270.21 20.6554 269.518 22.3946Z" fill="white"/>
</svg>
