<svg width="225" height="19" viewBox="0 0 225 19" fill="none" xmlns="http://www.w3.org/2000/svg">
<path d="M23.2956 5.28548C23.3115 5.45469 23.3115 5.62394 23.3115 5.79315C23.3115 10.9543 18.1771 16.9012 8.79293 16.9012C5.90185 16.9012 3.21618 16.2606 0.957031 15.1486C1.3678 15.1849 1.76271 15.197 2.18929 15.197C4.57477 15.197 6.77075 14.5805 8.52435 13.5289C6.28101 13.4927 4.40102 12.3686 3.75328 10.8214C4.06927 10.8576 4.38522 10.8818 4.71701 10.8818C5.17514 10.8818 5.63332 10.8335 6.05985 10.7489C3.72172 10.3862 1.96807 8.81493 1.96807 6.91725V6.86892C2.64737 7.15901 3.43734 7.34032 4.27459 7.36446C2.90014 6.66339 1.99968 5.46678 1.99968 4.11301C1.99968 3.38779 2.25241 2.723 2.69478 2.14281C5.2067 4.51189 8.98249 6.05902 13.2164 6.22827C13.1374 5.93818 13.09 5.63603 13.09 5.33384C13.09 3.18231 15.3649 1.42969 18.1928 1.42969C19.662 1.42969 20.989 1.90109 21.9212 2.66258C23.0744 2.49336 24.1803 2.167 25.1598 1.71978C24.7806 2.62634 23.9749 3.38783 22.9164 3.87128C23.9433 3.78671 24.9386 3.5691 25.8549 3.26695C25.1599 4.04049 24.2909 4.72944 23.2956 5.28548V5.28548Z" fill="white"/>
<path d="M77.2205 9.22216C77.2205 4.12497 71.8227 -0.00488281 65.1605 -0.00488281C58.4984 -0.00488281 53.1006 4.12497 53.1006 9.22216C53.1006 13.8275 57.5107 17.6448 63.2762 18.3376V11.8895H60.2125V9.22216H63.2762V7.18924C63.2762 4.87689 65.0754 3.59962 67.8312 3.59962C69.151 3.59962 70.5311 3.77969 70.5311 3.77969V6.04925H69.01C67.5122 6.04925 67.0449 6.76063 67.0449 7.49023V9.22216H70.3896L69.8547 11.8895H67.0449V18.3376C72.8103 17.6448 77.2205 13.8275 77.2205 9.22216Z" fill="white"/>
<path d="M122.69 0.832031H104.011C103.156 0.832031 102.46 1.37152 102.46 2.03378V16.2985C102.46 16.9608 103.156 17.5002 104.011 17.5002H122.69C123.546 17.5002 124.246 16.9608 124.246 16.2985V2.03378C124.246 1.37152 123.546 0.832031 122.69 0.832031ZM109.045 15.1191H105.816V7.16446H109.049V15.1191H109.045ZM107.43 6.07805C106.394 6.07805 105.558 5.43439 105.558 4.64563C105.558 3.85687 106.394 3.2132 107.43 3.2132C108.461 3.2132 109.302 3.85687 109.302 4.64563C109.302 5.43811 108.466 6.07805 107.43 6.07805ZM121.148 15.1191H117.919V11.2497C117.919 10.327 117.895 9.14009 116.242 9.14009C114.559 9.14009 114.301 10.1447 114.301 11.1827V15.1191H111.072V7.16446H114.17V8.25087H114.214C114.647 7.62582 115.702 6.96727 117.273 6.96727C120.54 6.96727 121.148 8.61549 121.148 10.7585V15.1191Z" fill="white"/>
<path d="M177.314 4.2579C177.009 3.37798 176.109 2.68499 174.966 2.44981C172.895 2.02246 164.59 2.02246 164.59 2.02246C164.59 2.02246 156.285 2.02246 154.214 2.44981C153.072 2.68502 152.172 3.37798 151.866 4.2579C151.311 5.8528 151.311 9.18042 151.311 9.18042C151.311 9.18042 151.311 12.508 151.866 14.1029C152.172 14.9829 153.072 15.647 154.214 15.8822C156.285 16.3095 164.59 16.3095 164.59 16.3095C164.59 16.3095 172.895 16.3095 174.966 15.8822C176.109 15.647 177.009 14.9829 177.314 14.1029C177.869 12.508 177.869 9.18042 177.869 9.18042C177.869 9.18042 177.869 5.8528 177.314 4.2579V4.2579ZM161.874 12.2016V6.15919L168.815 9.18049L161.874 12.2016V12.2016Z" fill="white"/>
<path d="M214.012 4.89007C210.919 4.89007 208.425 6.79873 208.425 9.16502C208.425 11.5313 210.919 13.44 214.012 13.44C217.105 13.44 219.6 11.5313 219.6 9.16502C219.6 6.79873 217.105 4.89007 214.012 4.89007ZM214.012 11.9443C212.013 11.9443 210.38 10.6979 210.38 9.16502C210.38 7.63214 212.009 6.38575 214.012 6.38575C216.016 6.38575 217.645 7.63214 217.645 9.16502C217.645 10.6979 216.011 11.9443 214.012 11.9443ZM221.131 4.7152C221.131 5.26957 220.548 5.71232 219.828 5.71232C219.104 5.71232 218.525 5.26585 218.525 4.7152C218.525 4.16456 219.108 3.71809 219.828 3.71809C220.548 3.71809 221.131 4.16456 221.131 4.7152ZM224.832 5.7272C224.749 4.39151 224.351 3.20837 223.072 2.23358C221.798 1.25878 220.251 0.953695 218.505 0.886724C216.706 0.808592 211.313 0.808592 209.514 0.886724C207.773 0.949974 206.227 1.25506 204.948 2.22985C203.669 3.20465 203.275 4.38779 203.187 5.72348C203.085 7.1001 203.085 11.2262 203.187 12.6028C203.27 13.9385 203.669 15.1217 204.948 16.0965C206.227 17.0713 207.768 17.3764 209.514 17.4433C211.313 17.5215 216.706 17.5215 218.505 17.4433C220.251 17.3801 221.798 17.075 223.072 16.0965C224.346 15.1217 224.745 13.9385 224.832 12.6028C224.934 11.2262 224.934 7.10382 224.832 5.7272ZM222.508 14.0799C222.128 14.8091 221.394 15.371 220.436 15.6649C219.001 16.1002 215.597 15.9997 214.012 15.9997C212.427 15.9997 209.018 16.0965 207.588 15.6649C206.635 15.3747 205.901 14.8129 205.517 14.0799C204.948 12.9823 205.079 10.3779 205.079 9.16502C205.079 7.95211 204.953 5.34398 205.517 4.25013C205.896 3.5209 206.63 2.95909 207.588 2.66516C209.023 2.22985 212.427 2.33031 214.012 2.33031C215.597 2.33031 219.006 2.23358 220.436 2.66516C221.389 2.95537 222.123 3.51718 222.508 4.25013C223.077 5.3477 222.945 7.95211 222.945 9.16502C222.945 10.3779 223.077 12.9861 222.508 14.0799Z" fill="white"/>
</svg>
